<svg xmlns="http://www.w3.org/2000/svg" xmlns:xlink="http://www.w3.org/1999/xlink" width="805.06" height="471" viewBox="0 0 805.06 471">
  <defs>
    <clipPath id="clip-path">
      <rect id="CARD" width="805.06" height="471" rx="20" fill="#b4ceff"/>
    </clipPath>
  </defs>
  <g id="complete-card4" transform="translate(-4275 -601)">
    <g id="_24_-_DESIGN_CARD" data-name="24 - DESIGN CARD" transform="translate(-735.94 -5438)">
      <g id="CARD-2" data-name="CARD" transform="translate(5010.94 6039)">
        <rect id="CARD-3" data-name="CARD" width="805.06" height="471" rx="20" fill="#b4ceff"/>
        <g id="Clip" clip-path="url(#clip-path)">
          <path id="SHAPE" d="M5264.076,6416.828c-58.924-43.035-109.741-97.641-142.368-160.371-27.771-53.4-62.1-148.433-8.767-197.483,20.232-18.6,48.441-27.269,74.943-37.1,80.533-29.884,146.726-88.857,238.268-76.129,74.752,10.392,143.134,50.2,202.328,91.577,54.464,38.075,98.162,86.076,117.265,138.567,15.438,42.416,16.084,89.423-6.14,122.133a106.923,106.923,0,0,1-26.245,26.444c-10.994,7.932-23.831,15.145-37.747,21.911-47.735,23.206-89.488,46.843-124.838,84.859-30.378,32.668-64.99,53.1-113.328,53.826-41.68.625-82.423-13.128-118.165-32.92A525.578,525.578,0,0,1,5264.076,6416.828Z" transform="translate(-5010.94 -6031.561)" fill="#75a1f3"/>
          <path id="SHAPE-2" data-name="SHAPE" d="M4907.263,6176.3A341.191,341.191,0,0,0,4921,6260.462a259.113,259.113,0,0,0,38.109,77.706c20.115,27.693,46.284,51.334,73.092,73.881,26.058,21.915,51.833,47.134,82.849,62.517,38.287,18.99,71.047,12.552,107.195-1.975,11.628-4.672,24.151-9.8,37.23-14.944,30.063-10.675,61.337-18.366,92.9-25.11,29.632-6.331,62.831-9.117,91.177-20.111a137.026,137.026,0,0,0,27.653-14.5,208.992,208.992,0,0,0,25.736-20.9,211.375,211.375,0,0,0,35.163-43.137,238.143,238.143,0,0,0,22.516-48.445c6.237-16.778,11.475-34.1,16.338-51.653s9.232-35.338,13.293-53.089c6.393-27.933,9.179-55.69,6.984-81.837s-9.858-50.705-24.291-72.231c-11.662-17.394-28.426-33.279-49.424-45.644s-46.523-21.217-74.344-24.459a260.327,260.327,0,0,0-53.857-.283,613.36,613.36,0,0,0-61.708,9.379c-18.939,3.737-37.769,7.4-56.538,10.711s-37.4,6.291-55.957,8.662-36.878,4.14-55.025,5.033a478.956,478.956,0,0,1-53.462-.182c-31.029-1.945-59.384-.868-84.918,5.656-25.439,6.522-48.724,18.522-69.078,38.59-27.9,27.512-39.584,61.738-43.873,98.4A278.519,278.519,0,0,0,4907.263,6176.3Z" transform="translate(-5010.94 -6032.425)" fill="#0059c6"/>
        </g>
      </g>
    </g>
    <g id="card-number" transform="translate(4325.275 815.5)">
      <text id="_4756_" data-name=" 4756 " transform="translate(0 35)" fill="#fff" font-size="50" font-family="Helvetica-Bold, Helvetica" font-weight="700"><tspan x="0" y="0" xml:space="preserve"> 4756 </tspan></text>
      <text id="_9018" data-name=" 9018" transform="translate(413.59 35)" fill="#fff" font-size="50" font-family="Helvetica-Bold, Helvetica" font-weight="700"><tspan x="0" y="0" xml:space="preserve"> 9018</tspan></text>
      <g id="CIRCLES_HIDE" data-name="CIRCLES HIDE" transform="translate(160 8.5)">
        <path id="CIRCLES_HIDE-2" data-name="CIRCLES HIDE" d="M79.96,7A7.111,7.111,0,0,1,94.179,7,7.11,7.11,0,0,1,79.96,7ZM53.311,7A7.111,7.111,0,0,1,67.53,7a7.111,7.111,0,0,1-14.22,0ZM26.649,7a7.111,7.111,0,0,1,14.22,0,7.111,7.111,0,0,1-14.22,0ZM0,7A7.054,7.054,0,0,1,7.11,0a7.054,7.054,0,0,1,7.109,7A7.055,7.055,0,0,1,7.11,14,7.056,7.056,0,0,1,0,7Z" fill="#fff"/>
        <path id="CIRCLES_HIDE-3" data-name="CIRCLES HIDE" d="M79.97,7A7.112,7.112,0,0,1,94.191,7,7.112,7.112,0,0,1,79.97,7ZM53.311,7A7.112,7.112,0,0,1,67.532,7,7.112,7.112,0,0,1,53.311,7ZM26.661,7a7.111,7.111,0,0,1,14.22,0,7.111,7.111,0,0,1-14.22,0ZM0,7A7.054,7.054,0,0,1,7.112,0a7.054,7.054,0,0,1,7.11,7,7.056,7.056,0,0,1-7.11,7A7.056,7.056,0,0,1,0,7Z" transform="translate(124.398)" fill="#fff"/>
      </g>
    </g>
    <g id="new-card" transform="translate(4314.91 652.878)">
      <g id="MASTERCARD_-_WHITE_LOGO_-_STYLE_1" data-name="MASTERCARD - WHITE LOGO - STYLE 1" transform="translate(579.16 297.182)">
        <ellipse id="WHITE" cx="35.98" cy="35.97" rx="35.98" ry="35.97" transform="translate(44.97)" fill="#fff" opacity="0.6"/>
        <ellipse id="WHITE-2" data-name="WHITE" cx="35.98" cy="35.97" rx="35.98" ry="35.97" fill="#fff"/>
      </g>
    </g>
  </g>
</svg>
