<svg xmlns="http://www.w3.org/2000/svg" xmlns:xlink="http://www.w3.org/1999/xlink" width="804.97" height="471" viewBox="0 0 804.97 471">
  <defs>
    <clipPath id="clip-path">
      <rect id="CARD" width="804.97" height="471" rx="20" fill="#d9deea"/>
    </clipPath>
  </defs>
  <g id="complete-card2" transform="translate(-4274.825 -61)">
    <g id="_51_-_DESIGN_CARD" data-name="51 - DESIGN CARD" transform="translate(3625.575 -1338)">
      <g id="CARD-2" data-name="CARD" transform="translate(649.25 1399)">
        <rect id="CARD-3" data-name="CARD" width="804.97" height="471" rx="20" fill="#d9deea"/>
        <g id="Clip" clip-path="url(#clip-path)">
          <path id="SHAPE" d="M1193.8,251.916l553.273,1503.405-383.909,120.034c-21.479-33.561-55.859-61.276-93.46-80.055-59.436-29.69-127.019-41.627-192.454-57.3-36.843-8.82-79.2-24.4-87.628-58.611-5.377-21.825,5.431-43.861,10.609-65.734,13.653-57.633-16.141-121.789-70.8-152.466-13.583-7.623-29.011-13.784-38.119-25.8-28.1-37.087,25.938-84.568,20.81-129.557-1.859-16.265-11.508-30.842-21.953-44.062-114.962-145.515-328.711-181.763-504.523-260.2-51.331-22.9-101.588-51.037-136.755-92.41s-53-98.257-33.99-147.815c25.977-67.733,108.85-100.983,185.483-114.164s158.5-14.981,225.434-51.819C698.563,555.333,739.8,481.643,796.393,423.545c28.344-29.108,60.631-54.307,95.072-77.1Z" transform="translate(-649.25 -1309.209)" fill="#c2cadc"/>
          <path id="SHAPE-2" data-name="SHAPE" d="M1375.923,57.01l553.305,1503.138L1545.3,1680.161c-21.479-33.554-55.862-61.265-93.466-80.04-59.44-29.686-127.026-41.62-192.465-57.289-36.846-8.818-79.207-24.4-87.633-58.6-5.378-21.821,5.431-43.854,10.609-65.723,13.655-57.622-16.142-121.766-70.8-152.439-13.582-7.621-29.012-13.781-38.12-25.8-28.1-37.081,25.941-84.553,20.812-129.534-1.86-16.262-11.51-30.836-21.954-44.054C957.3,921.2,743.542,884.954,567.721,806.529c-51.336-22.9-101.595-51.029-136.765-92.393s-53-98.24-33.992-147.789C422.943,498.626,505.822,465.383,582.458,452.2s158.515-14.979,225.448-51.81C880.652,360.373,921.9,286.7,978.489,228.608c28.345-29.1,60.635-54.3,95.076-77.085Z" transform="translate(-649.25 -1293.952)" fill="#8490ad"/>
        </g>
      </g>
    </g>
    <g id="new-card" transform="translate(4334.91 769.044)">
      <g id="MASTERCARD_-_WHITE_LOGO_-_STYLE_1" data-name="MASTERCARD - WHITE LOGO - STYLE 1" transform="translate(559.16 -357.431)">
        <ellipse id="WHITE" cx="35.98" cy="35.97" rx="35.98" ry="35.97" transform="translate(44.97)" fill="#fff" opacity="0.6"/>
        <ellipse id="WHITE-2" data-name="WHITE" cx="35.98" cy="35.97" rx="35.98" ry="35.97" fill="#fff"/>
      </g>
    </g>
    <g id="card-number" transform="translate(4325.275 275.5)">
      <text id="_4756_" data-name=" 4756 " transform="translate(0 35)" fill="#fff" font-size="50" font-family="Helvetica-Bold, Helvetica" font-weight="700"><tspan x="0" y="0" xml:space="preserve"> 4756 </tspan></text>
      <text id="_9018" data-name=" 9018" transform="translate(413.59 35)" fill="#fff" font-size="50" font-family="Helvetica-Bold, Helvetica" font-weight="700"><tspan x="0" y="0" xml:space="preserve"> 9018</tspan></text>
      <g id="CIRCLES_HIDE" data-name="CIRCLES HIDE" transform="translate(160 8.5)">
        <path id="CIRCLES_HIDE-2" data-name="CIRCLES HIDE" d="M79.96,7A7.111,7.111,0,0,1,94.179,7,7.11,7.11,0,0,1,79.96,7ZM53.311,7A7.111,7.111,0,0,1,67.53,7a7.111,7.111,0,0,1-14.22,0ZM26.649,7a7.111,7.111,0,0,1,14.22,0,7.111,7.111,0,0,1-14.22,0ZM0,7A7.054,7.054,0,0,1,7.11,0a7.054,7.054,0,0,1,7.109,7A7.055,7.055,0,0,1,7.11,14,7.056,7.056,0,0,1,0,7Z" fill="#fff"/>
        <path id="CIRCLES_HIDE-3" data-name="CIRCLES HIDE" d="M79.97,7A7.112,7.112,0,0,1,94.191,7,7.112,7.112,0,0,1,79.97,7ZM53.311,7A7.112,7.112,0,0,1,67.532,7,7.112,7.112,0,0,1,53.311,7ZM26.661,7a7.111,7.111,0,0,1,14.22,0,7.111,7.111,0,0,1-14.22,0ZM0,7A7.054,7.054,0,0,1,7.112,0a7.054,7.054,0,0,1,7.11,7,7.056,7.056,0,0,1-7.11,7A7.056,7.056,0,0,1,0,7Z" transform="translate(124.398)" fill="#fff"/>
      </g>
    </g>
  </g>
</svg>
