<svg xmlns="http://www.w3.org/2000/svg" xmlns:xlink="http://www.w3.org/1999/xlink" width="804.97" height="471" viewBox="0 0 804.97 471">
  <defs>
    <clipPath id="clip-path">
      <rect id="CARD_" data-name="CARD " width="804.97" height="471" rx="20" fill="#272244"/>
    </clipPath>
  </defs>
  <g id="complete-card3" transform="translate(-3434 -601)">
    <g id="_70_-_DESIGN_CARD_" data-name="70 - DESIGN CARD " transform="translate(-3031.16 -4278)">
      <g id="CARD_2" data-name="CARD " transform="translate(6465.16 4879)">
        <rect id="CARD_3" data-name="CARD " width="804.97" height="471" rx="20" fill="#272244"/>
        <g id="Clip" clip-path="url(#clip-path)">
          <path id="SHAPE" d="M1860.7,2691.891c-8.943-29.3,4.152-59.623,30.107-75.865a77.58,77.58,0,0,1,21.713-9.3c39.757-10.326,81.191,11.079,92.365,47.7,2.363,7.731-2.537,15.784-10.925,17.961-8.4,2.181-17.125-2.321-19.487-10.061-6.458-21.174-30.416-33.547-53.4-27.578s-36.416,28.063-29.957,49.24c2.359,7.738-2.525,15.787-10.934,17.962a17.065,17.065,0,0,1-4.294.551C1868.994,2702.505,1862.662,2698.31,1860.7,2691.891ZM794.057,2566.269a51.692,51.692,0,0,1-15.719-39.07c.592-14.541,7.291-28,18.858-37.9a59.472,59.472,0,0,1,7.069-5.186c24.309-15.213,56.464-11.84,76.456,8.019a51.71,51.71,0,0,1,15.731,39.078c-.589,14.543-7.291,28.006-18.87,37.912a58.772,58.772,0,0,1-7.051,5.176,62.243,62.243,0,0,1-33.009,9.283C821.474,2583.589,805.526,2577.663,794.057,2566.269Zm24.624-55.63a24.413,24.413,0,0,0-8.774,17.635,24.077,24.077,0,0,0,7.316,18.182c9.164,9.1,24.459,10.718,35.577,3.761a27.679,27.679,0,0,0,3.3-2.428,24.412,24.412,0,0,0,8.781-17.642,24.076,24.076,0,0,0-7.325-18.192,29.522,29.522,0,0,0-38.878-1.316Zm612.474,41.673a15.433,15.433,0,0,1-9.077-7.354l-37.606-70.489a13.512,13.512,0,0,1-.773-11.118,14.762,14.762,0,0,1,6.084-7.354,16.093,16.093,0,0,1,1.9-1.017l76.5-34.7c7.833-3.554,17.3-.583,21.142,6.629l37.609,70.486a13.52,13.52,0,0,1,.776,11.121,15.031,15.031,0,0,1-7.983,8.372l-76.5,34.7a17.015,17.015,0,0,1-12.069.727ZM1419.8,2474.67l23.661,44.368,48.151-21.843-23.667-44.365Zm216.789-24.208a14.036,14.036,0,0,1,6.443-15.626,16.437,16.437,0,0,1,4.99-2.066l220.863-51.656c8.459-1.979,17.053,2.739,19.188,10.53s-2.983,15.712-11.433,17.694l-220.863,51.656a17.136,17.136,0,0,1-3.9.452C1644.815,2461.446,1638.392,2457.055,1636.586,2450.462ZM648.03,2225.1c-3-6.51-.464-13.91,5.657-17.743a16.5,16.5,0,0,1,2.706-1.356l88.123-34.571c8.032-3.148,17.305.293,20.719,7.691s-.324,15.926-8.36,19.1l-88.126,34.573a16.92,16.92,0,0,1-6.182,1.167A15.884,15.884,0,0,1,648.03,2225.1Zm1648.6-115.444a13.589,13.589,0,0,1-.976-14.531l48.129-89.138a14.989,14.989,0,0,1,5.274-5.562,16.7,16.7,0,0,1,7.892-2.49,16.253,16.253,0,0,1,14.139,6.481l59.668,82.926a13.591,13.591,0,0,1,.976,14.532,15.909,15.909,0,0,1-13.166,8.053l-107.794,6.21c-.328.019-.655.028-.981.028A16.185,16.185,0,0,1,2296.631,2109.651Zm39.5-24.157,53.176-3.062-29.434-40.911Zm315.572-24.851-69.764-18.082c-6.589-1.71-11.23-7.134-11.5-13.435l-2.846-66.759a14.241,14.241,0,0,1,6.913-12.627,16.456,16.456,0,0,1,3.4-1.612l68.006-23.167a16.642,16.642,0,0,1,17.876,4.636l44.869,52.435a13.652,13.652,0,0,1,.729,17.1l-40.268,55.57a16.21,16.21,0,0,1-13.145,6.482A17,17,0,0,1,2651.7,2060.643Zm-52.091-88.87,1.945,45.62,47.671,12.354,27.517-37.973-30.658-35.832Zm486.336,82.185-62.682-33.522c-5.916-3.166-8.949-9.484-7.506-15.649l15.264-65.32a14.609,14.609,0,0,1,6.58-8.992,16.641,16.641,0,0,1,7.256-2.434l72.111-6.849c6.807-.649,13.291,2.821,16.056,8.59l29.3,61.095a13.788,13.788,0,0,1-3.909,16.732l-54,44.595a16.539,16.539,0,0,1-10.541,3.724A16.818,16.818,0,0,1,3085.949,2053.958Zm-26.457-98.035-10.429,44.632,42.83,22.91,36.9-30.477-20.023-41.748Zm-1637.94,69.018-91.832-24.924c-8.366-2.269-13.147-10.364-10.679-18.074a14.652,14.652,0,0,1,6.274-7.93,16.89,16.89,0,0,1,13.347-1.926l91.832,24.922c8.366,2.27,13.147,10.363,10.682,18.074-2.031,6.348-8.33,10.455-15.152,10.455A17.037,17.037,0,0,1,1421.552,2024.942Zm1531.776-87.325L2864.5,1744.3c-2.992-6.5-.452-13.9,5.664-17.723a16.4,16.4,0,0,1,2.724-1.365c8.032-3.137,17.3.317,20.706,7.717l88.828,193.317c3.4,7.4-.346,15.928-8.388,19.091a16.929,16.929,0,0,1-6.162,1.159A15.88,15.88,0,0,1,2953.328,1937.616Zm-1461.834-102.4-105-23.231a15.309,15.309,0,0,1-11.455-10.021,13.767,13.767,0,0,1,3.7-14.158l74.39-72.21a15.77,15.77,0,0,1,2.587-2.023,16.918,16.918,0,0,1,12.565-2.114,15.305,15.305,0,0,1,11.452,10.021l30.609,95.441a13.77,13.77,0,0,1-3.7,14.158,16.5,16.5,0,0,1-11.464,4.54A17,17,0,0,1,1491.494,1835.22Zm-71-45.657,51.8,11.455-15.1-47.08ZM81.809,1719.83a30.673,30.673,0,0,1-19.356-12.314,26.319,26.319,0,0,1-4.236-21.334,28.247,28.247,0,0,1,12.8-17.511,33.057,33.057,0,0,1,23.714-4.271c16.595,3.28,27.18,18.375,23.62,33.654a28.282,28.282,0,0,1-12.8,17.507,33.173,33.173,0,0,1-23.742,4.27Zm1793.58-170.448-19.618-9.507a14.921,14.921,0,0,1-7.727-8.567,13.547,13.547,0,0,1,1.11-11.1l10.323-18.072a15,15,0,0,1,5.1-5.266,16.946,16.946,0,0,1,16.236-.851l19.612,9.5c7.721,3.74,10.688,12.543,6.624,19.662l-10.317,18.087a15.606,15.606,0,0,1-9.3,7.13,17.039,17.039,0,0,1-12.041-1.014ZM735.181,1406.77l-5.305-19.826a13.581,13.581,0,0,1,1.817-11.021,15.067,15.067,0,0,1,4.654-4.52,16.48,16.48,0,0,1,5.084-2.091l21.526-4.9a16.992,16.992,0,0,1,11.96,1.672,14.683,14.683,0,0,1,7.156,8.978l5.293,19.824c2.088,7.8-3.07,15.694-11.555,17.62l-21.513,4.9a17.08,17.08,0,0,1-3.8.428C743.406,1417.835,736.953,1413.4,735.181,1406.77ZM11.889,1394.254c-13.409-9.6-15.837-27.446-5.436-39.782a29.845,29.845,0,0,1,7.032-6.088,32.785,32.785,0,0,1,36.113,1.052c13.394,9.578,15.828,27.42,5.433,39.771A29.831,29.831,0,0,1,48,1395.292a32.814,32.814,0,0,1-36.11-1.037Zm854.934-68.273c-38.753-13.124-58.683-52.864-44.417-88.589a69.717,69.717,0,0,1,28.1-33.241,78.084,78.084,0,0,1,10.763-5.607,80.214,80.214,0,0,1,57.275-2.153c8.185,2.772,12.384,11.139,9.366,18.686s-12.106,11.417-20.282,8.645a46.359,46.359,0,0,0-33.105,1.247,41.1,41.1,0,0,0-22.467,22.46,36.752,36.752,0,0,0,1.328,30.514,41.834,41.834,0,0,0,24.356,20.707c8.185,2.772,12.381,11.137,9.363,18.685-2.354,5.9-8.4,9.544-14.832,9.544A16.928,16.928,0,0,1,866.823,1325.981Zm691.848-360.313-83.978-13.449c-8.594-1.373-14.348-8.914-12.848-16.833l14.647-77.412a14.5,14.5,0,0,1,6.474-9.416c.075-.045.146-.091.218-.138a16.929,16.929,0,0,1,11.583-2.3l83.974,13.451c8.594,1.374,14.344,8.912,12.845,16.834l-14.641,77.409a14.492,14.492,0,0,1-6.477,9.415,17.614,17.614,0,0,1-9.2,2.646A16.408,16.408,0,0,1,1558.671,965.668Zm-62.991-39.647,52.858,8.469,9.217-48.722L1504.9,877.3ZM715.061,795.159c-.175-18.281,9.529-35.327,25.949-45.6a62.344,62.344,0,0,1,32.632-9.38,61.386,61.386,0,0,1,41.939,15.583c11.265,10.194,17.542,23.82,17.679,38.372.175,18.272-9.532,35.312-25.958,45.588a62.446,62.446,0,0,1-32.635,9.393c-.181,0-.365,0-.546,0C741.792,849.117,715.349,825.017,715.061,795.159Zm58.852-25.866a29.021,29.021,0,0,0-15.17,4.349,24.857,24.857,0,0,0-12.091,21.238c.137,13.974,12.583,25.239,27.744,25.118a29.05,29.05,0,0,0,15.173-4.362,24.83,24.83,0,0,0,12.1-21.228,24.252,24.252,0,0,0-8.226-17.863,28.583,28.583,0,0,0-19.264-7.254ZM2167.1,414.976c-16.583-3.281-27.168-18.375-23.6-33.656a28.262,28.262,0,0,1,12.8-17.5,33.06,33.06,0,0,1,23.714-4.271c16.595,3.287,27.18,18.384,23.617,33.654a28.286,28.286,0,0,1-12.8,17.507,33.207,33.207,0,0,1-23.736,4.27Zm-495.49-282.13-62.686-33.524a14.145,14.145,0,0,1-7.506-15.65l15.264-65.322a14.6,14.6,0,0,1,6.583-8.987,16.62,16.62,0,0,1,7.25-2.439L1702.628.077c6.811-.647,13.294,2.824,16.059,8.59l29.3,61.1a13.785,13.785,0,0,1-3.912,16.733l-54,44.6a16.874,16.874,0,0,1-18.471,1.752Zm-26.457-98.037-10.433,44.634,42.833,22.909,36.9-30.471-20.024-41.753Z" transform="translate(-9022.015 4246.449)" fill="#ff5112"/>
          <path id="SHAPE-2" data-name="SHAPE" d="M868.025,2457.012c-29.7-12.346-42.958-44.659-29.558-72.032a55.8,55.8,0,0,1,20.652-22.664,63.006,63.006,0,0,1,57.521-4.61c29.695,12.348,42.95,44.668,29.546,72.051a55.767,55.767,0,0,1-20.639,22.646,62.533,62.533,0,0,1-33.171,9.473A63.4,63.4,0,0,1,868.025,2457.012Zm8.827-70.606a25.929,25.929,0,0,0-9.594,10.543c-6.238,12.736-.063,27.775,13.761,33.522a29.352,29.352,0,0,0,26.8-2.157,25.878,25.878,0,0,0,9.579-10.525c6.244-12.749.077-27.794-13.747-33.54a29.543,29.543,0,0,0-11.333-2.262A29.131,29.131,0,0,0,876.852,2386.406Zm939.889-112.9c-20.006-31.5-9.771-71.763,22.53-91.976q2.065-1.294,4.251-2.473c7.527-4.066,17.2-1.737,21.607,5.2s1.855,15.838-5.65,19.92c-20.614,11.075-27.542,35.622-15.477,54.6s38.637,25.369,59.238,14.246c7.523-4.065,17.2-1.736,21.606,5.2s1.875,15.87-5.65,19.92a79.345,79.345,0,0,1-37.735,9.456C1855.733,2307.607,1830.659,2295.4,1816.741,2273.509Zm223.045-86.719c-5.008-12.3-.273-26.036,11.514-33.41a31.963,31.963,0,0,1,6.46-3.085,32.939,32.939,0,0,1,23.521.717,29.2,29.2,0,0,1,16.074,15.841c5.006,12.294.273,26.034-11.516,33.412a31.928,31.928,0,0,1-6.458,3.083,32.979,32.979,0,0,1-10.789,1.813C2056.143,2205.162,2044.409,2198.145,2039.786,2186.79Zm-1255.049-193-84.965-5.974a16.285,16.285,0,0,1-10.78-5.034,13.829,13.829,0,0,1-3.761-10.59l6.524-78.335a14.369,14.369,0,0,1,6.888-10.943,16.749,16.749,0,0,1,10.067-2.464l84.966,5.978a16.281,16.281,0,0,1,10.782,5.034,13.843,13.843,0,0,1,3.758,10.59l-6.525,78.332c-.633,7.645-7.555,13.449-15.743,13.45Q785.346,1993.83,784.737,1993.788Zm-66.8-33.9,53.471,3.76,4.105-49.3-53.471-3.761Zm320.239,26.756c-16.9-1.433-29.375-15.254-27.823-30.812a27.953,27.953,0,0,1,13.36-20.862,32.871,32.871,0,0,1,20.065-4.774,31.38,31.38,0,0,1,20.832,10.091,26.706,26.706,0,0,1,6.981,20.707,27.968,27.968,0,0,1-13.364,20.874,32.714,32.714,0,0,1-17.289,4.891Q1039.558,1986.76,1038.175,1986.645ZM7.615,1684.776c-15.089-24.509-7.1-56.109,18.189-71.933q1.968-1.231,4.063-2.333c28.333-14.826,64.465-5.64,80.548,20.475,15.864,25.785,6.227,59.333-22.231,74.264a62.736,62.736,0,0,1-29.089,7.09C38.5,1712.34,18.477,1702.425,7.615,1684.776Zm37.842-48.943c-13.244,6.892-17.757,22.556-10.364,34.565,7.483,12.158,24.31,16.433,37.508,9.532.646-.341,1.284-.7,1.894-1.086,11.76-7.359,15.473-22.066,8.444-33.48-5.057-8.214-14.375-12.831-23.954-12.831A29.136,29.136,0,0,0,45.456,1635.833Zm1574.062,47.728-21.043-209.072a14.176,14.176,0,0,1,6.867-13.4,16.553,16.553,0,0,1,7.4-2.441c8.685-.747,16.381,5.138,17.184,13.144l21.043,209.073c.809,8.009-5.585,15.1-14.266,15.846q-.746.064-1.482.063C1627.159,1696.771,1620.278,1691.109,1619.519,1683.561Zm458.5-57.468a15.659,15.659,0,0,1-12.529-8.86l-41.3-91.95a13.632,13.632,0,0,1,2.063-14.436,15.392,15.392,0,0,1,3.657-3.183,16.864,16.864,0,0,1,10.935-2.391l107.055,12.977a15.668,15.668,0,0,1,12.527,8.86,13.631,13.631,0,0,1-2.063,14.434l-65.751,78.975a16.334,16.334,0,0,1-12.538,5.7A17.064,17.064,0,0,1,2078.021,1626.094Zm6.192-43.3,32.438-38.961-52.812-6.4Zm-236.989,2.831a15.021,15.021,0,0,1-8-8.352l-7.189-19.314a13.98,13.98,0,0,1,6.061-16.771,16.449,16.449,0,0,1,3.751-1.725l20.952-6.637c8.25-2.614,17.233,1.433,20.065,9.035l7.2,19.312a13.524,13.524,0,0,1-.75,11.12,15.468,15.468,0,0,1-9.06,7.379l-20.958,6.639a17.02,17.02,0,0,1-12.065-.686Zm-974.211-44.988c-8.559-1.545-14.138-9.191-12.457-17.083l43.833-206.064a14.512,14.512,0,0,1,6.632-9.245A16.842,16.842,0,0,1,922.928,1306c8.557,1.543,14.138,9.194,12.456,17.084l-43.835,206.062c-1.474,6.947-8.079,11.766-15.478,11.766A17.154,17.154,0,0,1,873.012,1540.637Zm-666.718-74.331-25.99-84.922a14.021,14.021,0,0,1,6.333-16,16.459,16.459,0,0,1,4.583-1.964c8.395-2.185,17.117,2.315,19.489,10.056L236.7,1458.4c2.367,7.732-2.49,15.756-10.916,17.967a17.06,17.06,0,0,1-4.3.551C214.59,1476.914,208.259,1472.724,206.293,1466.306ZM1665.3,1160.424l-68.2-22.593c-6.44-2.134-10.654-7.847-10.439-14.15l2.266-66.769a14.328,14.328,0,0,1,6.92-11.594,16.281,16.281,0,0,1,4.457-1.932l69.581-18.673a16.48,16.48,0,0,1,17.468,5.787l40.753,55.221a13.649,13.649,0,0,1-.576,17.106l-44.4,52.813a16.329,16.329,0,0,1-12.492,5.643A16.973,16.973,0,0,1,1665.3,1160.424Zm-45.159-92.04-1.55,45.624,46.6,15.44,30.342-36.091-27.849-37.734Zm581.638,69.123-83.973-13.39a16,16,0,0,1-10.217-5.957,13.671,13.671,0,0,1-2.647-10.871l14.562-77.41a14.484,14.484,0,0,1,6.7-9.562,16.807,16.807,0,0,1,11.562-2.3l83.973,13.388a15.978,15.978,0,0,1,10.213,5.957,13.663,13.663,0,0,1,2.647,10.871l-14.558,77.41c-1.332,7.082-8.015,12.078-15.554,12.079A17.156,17.156,0,0,1,2201.778,1137.506Zm-63.018-39.6,52.852,8.424,9.161-48.719-52.85-8.427Zm303.8,9.92c-24.247-30.8-16.781-74.043,16.635-96.4.135-.091.272-.183.414-.272,7.025-4.4,16.617-2.882,21.642,3.5,5.124,6.5,3.551,15.608-3.509,20.331-19.317,12.928-23.631,37.931-9.619,55.734s40.986,21.757,60.47,8.84a16.455,16.455,0,0,1,22.056,3.23c5.122,6.505,3.549,15.61-3.513,20.331a78.4,78.4,0,0,1-43.824,13.157C2480.118,1136.28,2457.188,1126.4,2442.564,1107.828ZM1436,899.774a15.551,15.551,0,0,1-9.308-7.108L1416.342,874.6a13.553,13.553,0,0,1-1.125-11.1,14.736,14.736,0,0,1,6.226-7.749,16.163,16.163,0,0,1,1.493-.831l19.6-9.539c7.716-3.754,17.266-1.037,21.337,6.071l10.347,18.055c4.068,7.1,1.093,15.888-6.59,19.674l-19.588,9.546A17.015,17.015,0,0,1,1436,899.774Zm582.333-76.336-72.455-1.231c-6.846-.12-12.823-4.28-14.817-10.315l-21.1-63.89a13.979,13.979,0,0,1,6.066-16.176l59.411-38.277c.057-.037.118-.076.179-.113a16.883,16.883,0,0,1,18.383.425l57.826,40.251a13.9,13.9,0,0,1,5.408,16.369l-23.681,63.152c-2.206,5.872-8.208,9.806-14.928,9.807Zm-74.81-73.807,14.419,43.66,49.512.84,16.184-43.151-39.516-27.506ZM1510.107,502.594l-76.919-67.4a15.163,15.163,0,0,1-3.6-3.483c-4.9-6.652-3.017-15.7,4.2-20.221a.364.364,0,0,0,.091-.057,16.429,16.429,0,0,1,4.394-1.916l103.562-28.2a16.756,16.756,0,0,1,15.353,3.406,13.833,13.833,0,0,1,4.472,13.961l-25.321,96.766A15.17,15.17,0,0,1,1525.458,506a17.03,17.03,0,0,1-4.476.6A16.521,16.521,0,0,1,1510.107,502.594Zm-36.656-72.3,38.6,33.825,12.489-47.737ZM402.363,352.35c-20.01-31.5-9.773-71.765,22.525-91.982q2.068-1.291,4.251-2.473c7.528-4.062,17.2-1.731,21.609,5.2s1.827,15.805-5.648,19.925c-20.662,11.01-27.546,35.614-15.479,54.6s38.639,25.37,59.236,14.243c7.527-4.062,17.2-1.731,21.606,5.2s1.815,15.789-5.646,19.923a79.354,79.354,0,0,1-37.737,9.455C441.352,386.447,416.279,374.24,402.363,352.35ZM625.4,265.628c-5.006-12.3-.271-26.033,11.518-33.408a31.674,31.674,0,0,1,6.45-3.082,32.939,32.939,0,0,1,23.526.712,29.21,29.21,0,0,1,16.076,15.842c5.008,12.3.275,26.036-11.512,33.412a32.1,32.1,0,0,1-6.468,3.086A32.947,32.947,0,0,1,654.213,284C641.765,284,630.025,276.983,625.4,265.628Zm1046.666-150.7c-8.516-1.746-13.88-9.518-11.991-17.371L1680.858,11.4a14.547,14.547,0,0,1,6.548-8.885A16.862,16.862,0,0,1,1699.7.347c8.516,1.745,13.88,9.518,11.991,17.371l-20.776,86.148c-1.636,6.783-8.17,11.4-15.414,11.405A17.167,17.167,0,0,1,1672.071,114.924Z" transform="translate(-1422.492 -846.136)" fill="#ff1245"/>
          <path id="SHAPE-3" data-name="SHAPE" d="M1132.806,3006.277a16.454,16.454,0,0,1-11.1-4.421l-15.422-14.661a13.772,13.772,0,0,1,.346-20.579l15.907-14.227a15.681,15.681,0,0,1,2.132-1.6,16.737,16.737,0,0,1,9.109-2.514,16.472,16.472,0,0,1,11.1,4.417l15.425,14.66a13.766,13.766,0,0,1-.353,20.585l-15.907,14.226a16.572,16.572,0,0,1-11,4.115Zm385.952-118.605-94.286-45.209a15.544,15.544,0,0,1-7.361-5.4c-4.9-6.653-3.016-15.705,4.21-20.227.029-.017.055-.033.084-.054.126-.077.252-.155.382-.232l91.092-53.527a16.969,16.969,0,0,1,15.784-.644,14.522,14.522,0,0,1,8.484,12.28l4.689,99.449a14.32,14.32,0,0,1-7.29,12.917,16.982,16.982,0,0,1-15.787.645Zm-56.926-60.127,47.258,22.655-2.313-49.061Zm-442.114-99.16c-8.717-.266-15.551-6.991-15.26-15.026l7.614-209.875A14.329,14.329,0,0,1,1019,2491.91a16.706,16.706,0,0,1,9.384-2.5c8.72.266,15.551,6.994,15.26,15.029l-7.614,209.871c-.285,7.886-7.312,14.083-15.783,14.083C1020.071,2728.392,1019.9,2728.389,1019.717,2728.385ZM894.5,2673.053a30.219,30.219,0,0,1-18.47-13.444c-7.843-12.92-3.731-28.945,9.568-37.266.734-.46,1.495-.892,2.288-1.3a32.843,32.843,0,0,1,23.362-2.541,30.223,30.223,0,0,1,18.469,13.433c8.28,13.648,3.168,30.847-11.852,38.578a32.611,32.611,0,0,1-14.963,3.619A33.369,33.369,0,0,1,894.5,2673.053Zm93.2-268.8a13.788,13.788,0,0,1-2.246-20.483l60.563-68.388a15.481,15.481,0,0,1,3.372-2.847,16.871,16.871,0,0,1,18.855.769,13.792,13.792,0,0,1,2.249,20.484l-60.566,68.387a16.331,16.331,0,0,1-12.251,5.36A16.563,16.563,0,0,1,987.7,2404.254ZM494.182,2331.3a14.08,14.08,0,0,1-4.824-10.217l-1.537-78.549a14.262,14.262,0,0,1,6.94-12.326,16.678,16.678,0,0,1,8.565-2.5l85.226-1.47a16.574,16.574,0,0,1,11.257,4.068,14.082,14.082,0,0,1,4.824,10.217l1.534,78.557c.162,8.032-6.789,14.683-15.506,14.827l-85.223,1.461c-.106,0-.211,0-.317,0A16.5,16.5,0,0,1,494.182,2331.3Zm25.51-74.752.971,49.434,53.632-.919-.964-49.443Zm1468.4,77.683a31.706,31.706,0,0,1-21.469-8.875,26.893,26.893,0,0,1-8.361-20.278,27.962,27.962,0,0,1,13.483-22.628,32.483,32.483,0,0,1,18.156-4.876,31.779,31.779,0,0,1,21.459,8.86,26.934,26.934,0,0,1,8.377,20.275,27.983,27.983,0,0,1-13.487,22.643,32.421,32.421,0,0,1-17.252,4.891C1988.7,2334.242,1988.4,2334.238,1988.1,2334.23Zm618.51-162.612-85.3-58.289a15.254,15.254,0,0,1-5.18-4.438c-4.9-6.653-3.016-15.705,4.2-20.224h0c.026-.02.055-.038.084-.057a16.332,16.332,0,0,1,2.589-1.312l99.091-39.627a16.925,16.925,0,0,1,15.693,1.658,14.072,14.072,0,0,1,6.277,13.355l-12.361,98.895a14.745,14.745,0,0,1-9.413,11.7,16.949,16.949,0,0,1-6.285,1.2A16.7,16.7,0,0,1,2606.607,2171.618Zm-45.935-67.648,42.786,29.24,6.1-48.79Zm-460.93,39.049-84.754-8.377a16.179,16.179,0,0,1-10.607-5.339,13.77,13.77,0,0,1-3.4-10.693l9.144-78.116a14.418,14.418,0,0,1,6.847-10.5,16.765,16.765,0,0,1,10.552-2.425l84.747,8.377c8.675.859,14.949,8.035,14.011,16.028l-9.141,78.118c-.87,7.472-7.726,13.007-15.693,13.008Q2100.6,2143.1,2099.743,2143.02Zm-65.656-35.777,53.338,5.272,5.753-49.165-53.338-5.273Zm-1701.536-43.3a13.785,13.785,0,0,1,1.793-20.525,16.754,16.754,0,0,1,22.265,1.644c15.473,16.755,42.928,18.742,61.032,4.512a38.755,38.755,0,0,0,15.1-27.2,37.648,37.648,0,0,0-10.179-29.064,13.784,13.784,0,0,1,1.8-20.522,15.272,15.272,0,0,1,1.385-.973,16.747,16.747,0,0,1,20.88,2.614c12.962,14.035,19.214,31.887,17.609,50.269s-10.885,35.085-26.122,47.039a78.208,78.208,0,0,1-48.461,16.475C368.434,2088.217,347.343,2079.962,332.551,2063.946Zm2428.928-55.426a13.782,13.782,0,0,1,1.385-20.555l71.769-58.458a16.611,16.611,0,0,1,22.294,1.265,13.778,13.778,0,0,1-1.382,20.551l-71.769,58.459a16.566,16.566,0,0,1-10.458,3.638A16.38,16.38,0,0,1,2761.479,2008.52Zm-1667.227-121.3-47.559-50.391a13.669,13.669,0,0,1-1.618-17.051l37.321-57.29a15.137,15.137,0,0,1,4.669-4.551,16.907,16.907,0,0,1,12.422-2.147l70.623,14.977c6.669,1.417,11.587,6.628,12.179,12.912l6.332,66.547c.605,6.286-3.268,12.224-9.558,14.679l-66.718,26.153a16.919,16.919,0,0,1-6.18,1.162A16.379,16.379,0,0,1,1094.252,1887.218Zm-16.192-61.53,32.5,34.432,45.588-17.874-4.326-45.474-48.258-10.235ZM3218,1701.48a16.461,16.461,0,0,1-11.1-4.42l-15.418-14.662a13.765,13.765,0,0,1,.349-20.579l15.907-14.23a15.677,15.677,0,0,1,2.129-1.6,16.8,16.8,0,0,1,9.108-2.514,16.463,16.463,0,0,1,11.1,4.418l15.425,14.662a13.768,13.768,0,0,1-.349,20.585l-15.913,14.229a16.559,16.559,0,0,1-11.009,4.112ZM1624.534,1556.962c-8.565-1.526-14.163-9.161-12.506-17.056l43.313-206.179a14.537,14.537,0,0,1,6.643-9.282,16.843,16.843,0,0,1,11.872-2.252c8.565,1.521,14.166,9.16,12.5,17.054l-43.313,206.176c-1.464,6.969-8.087,11.8-15.5,11.805A17.046,17.046,0,0,1,1624.534,1556.962Zm1336.687-202.137c-7.843-12.935-3.728-28.957,9.565-37.278.734-.459,1.495-.892,2.288-1.3a32.844,32.844,0,0,1,23.362-2.544,30.227,30.227,0,0,1,18.473,13.43c8.277,13.651,3.223,30.824-11.856,38.581a32.588,32.588,0,0,1-14.954,3.6C2977.322,1369.32,2966.848,1364.094,2961.221,1354.825ZM1062.49,1138.045a14.345,14.345,0,0,1-7.7-12.708l1.563-99.536a14.294,14.294,0,0,1,6.924-11.835c.382-.239.77-.459,1.171-.671a16.963,16.963,0,0,1,15.794.206l92.733,50.953a14.016,14.016,0,0,1-.395,25.215l-94.3,48.582a16.972,16.972,0,0,1-15.8-.206Zm24.284-37.519,46.52-23.967-45.747-25.142Zm1492.6-74.028a14.034,14.034,0,0,1-4.828-10.214l-1.54-78.549a14.262,14.262,0,0,1,6.941-12.324,16.659,16.659,0,0,1,8.565-2.5l85.226-1.47a16.541,16.541,0,0,1,11.254,4.074,14.029,14.029,0,0,1,4.828,10.214l1.54,78.552c.156,8.038-6.785,14.673-15.509,14.828l-85.226,1.465c-.1,0-.2,0-.293,0A16.523,16.523,0,0,1,2579.375,1026.5Zm25.507-74.748.964,49.433,53.642-.922-.971-49.44ZM104.374,966.5,10.084,921.293a15.577,15.577,0,0,1-7.358-5.4c-4.9-6.651-3.016-15.705,4.207-20.227a.283.283,0,0,0,.087-.054l.382-.233,91.092-53.526a16.964,16.964,0,0,1,15.787-.641,14.518,14.518,0,0,1,8.481,12.278l4.692,99.453a14.16,14.16,0,0,1-7.293,12.914,16.977,16.977,0,0,1-15.787.642ZM47.447,906.372l47.258,22.654-2.313-49.061ZM1734.6,783.811c-3.407-20.643,6.514-41.569,25.271-53.307a61.588,61.588,0,0,1,24.265-8.758,62.527,62.527,0,0,1,43.925,9.959c12.713,8.616,21.022,21.282,23.388,35.66,3.411,20.653-6.51,41.578-25.271,53.318a61.537,61.537,0,0,1-24.271,8.761,64.242,64.242,0,0,1-8.944.627C1764.274,830.074,1739.039,810.73,1734.6,783.811Zm54.286-33.281a28.6,28.6,0,0,0-11.277,4.063c-8.74,5.469-13.364,15.212-11.778,24.823,2.284,13.82,16.334,23.352,31.328,21.247a28.645,28.645,0,0,0,11.286-4.065c8.74-5.47,13.36-15.216,11.771-24.838a24.916,24.916,0,0,0-10.885-16.592,28.872,28.872,0,0,0-16.236-4.934A30.174,30.174,0,0,0,1788.883,750.53ZM2468.762,783.2c-19.942-1.476-38.059-10.014-51.024-24.057a13.786,13.786,0,0,1,1.8-20.522,16.673,16.673,0,0,1,22.265,1.644,44.314,44.314,0,0,0,29.5,13.908,45.539,45.539,0,0,0,31.535-9.395c18.178-14.268,20.388-39.509,4.918-56.261a13.787,13.787,0,0,1,1.8-20.525,14.975,14.975,0,0,1,1.378-.97,16.75,16.75,0,0,1,20.883,2.613c26.753,28.978,22.935,72.625-8.513,97.308a78.242,78.242,0,0,1-48.452,16.482Q2471.818,783.428,2468.762,783.2ZM1180.339,622.181c-11.82-9.633-18.861-22.938-19.822-37.46-1.265-19.114,8.636-37.679,25.844-48.447A62.474,62.474,0,0,1,1215.912,527a61.818,61.818,0,0,1,42.757,13.555c11.82,9.64,18.861,22.947,19.825,37.469,1.262,19.111-8.643,37.671-25.85,48.438a62.442,62.442,0,0,1-29.539,9.274q-1.868.107-3.726.107A61.547,61.547,0,0,1,1180.339,622.181Zm37.5-66.122a29.048,29.048,0,0,0-13.745,4.305,24.907,24.907,0,0,0-12.043,22.568,24.492,24.492,0,0,0,9.225,17.432,29.4,29.4,0,0,0,33.639,2,24.888,24.888,0,0,0,12.047-22.556,24.5,24.5,0,0,0-9.228-17.444,28.628,28.628,0,0,0-18.154-6.358Q1218.71,556.01,1217.838,556.059Zm1103.99,35.749a14.821,14.821,0,0,1-7.439-8.781l-5.908-19.678a14.018,14.018,0,0,1,6.352-15.938,16.308,16.308,0,0,1,4.656-1.984l21.359-5.464a16.989,16.989,0,0,1,12,1.354,14.8,14.8,0,0,1,7.439,8.787l5.908,19.677c2.327,7.749-2.585,15.78-11.011,17.916l-21.356,5.464a17.1,17.1,0,0,1-4.225.53A16.855,16.855,0,0,1,2321.827,591.808ZM1240.8,369.463a63.728,63.728,0,0,1-5.051-52.616,69.348,69.348,0,0,1,29.274-36.371,78.228,78.228,0,0,1,7.536-4.148c7.733-3.726,17.279-.964,21.307,6.164s1.042,15.941-6.7,19.646a40.788,40.788,0,0,0-21.278,23.424,36.854,36.854,0,0,0,2.922,30.421c11.037,19.5,37.24,27.075,58.408,16.889,7.737-3.727,17.279-.963,21.31,6.162s1.09,15.914-6.7,19.646a79.61,79.61,0,0,1-34.557,7.837C1280.255,406.516,1254.132,393.018,1240.8,369.463ZM1192.22,250.449l-85.3-58.289a15.316,15.316,0,0,1-5.177-4.441c-4.9-6.651-3.016-15.705,4.207-20.221v0c.026-.018.058-.036.084-.054a16.91,16.91,0,0,1,2.585-1.315l99.094-39.628a16.92,16.92,0,0,1,15.693,1.661,14.08,14.08,0,0,1,6.277,13.352l-12.364,98.9a14.767,14.767,0,0,1-9.406,11.7,16.962,16.962,0,0,1-6.284,1.2A16.723,16.723,0,0,1,1192.22,250.449ZM1146.289,182.8l42.786,29.24,6.1-48.79Zm642.054-51.868L1743.77,82.376a13.66,13.66,0,0,1-1.851-16.3L1776,7.668a15.077,15.077,0,0,1,5.045-5.151A16.892,16.892,0,0,1,1793.106.3l65.63,12.446c6.818,1.291,11.911,6.546,12.538,12.94l6.488,66.112a14.393,14.393,0,0,1-8.672,14.343l-61.628,28.4a16.9,16.9,0,0,1-7.062,1.539A16.364,16.364,0,0,1,1788.343,130.933Zm-13.506-59.807,29.614,32.259,40.88-18.841-4.462-45.457L1798.247,31Z" transform="translate(-9024.157 4380.4)" fill="#ffb412"/>
          <path id="SHAPE-4" data-name="SHAPE" d="M637.637,2132.922a14.067,14.067,0,0,1,6.56-15.159,16.435,16.435,0,0,1,5.5-2.171L872.264,2070.8c8.525-1.714,16.941,3.262,18.8,11.123s-3.551,15.612-12.061,17.331l-222.566,44.785a17.128,17.128,0,0,1-3.386.339C645.782,2144.382,639.246,2139.734,637.637,2132.922Zm-168.569-226.4a15.124,15.124,0,0,1-8.274-8.126L430.7,1824.887c-2.631-6.423-.012-13.488,5.9-17.186a16.3,16.3,0,0,1,3.3-1.573l79.742-27.759c8.162-2.844,17.277.952,20.353,8.475l30.1,73.511a13.488,13.488,0,0,1-.385,11.139,15.294,15.294,0,0,1-8.816,7.629l-79.745,27.756a17.031,17.031,0,0,1-12.082-.354Zm-3.239-78.3,18.948,46.267,50.185-17.47-18.939-46.269Zm1096.881-76.458c-17.865-8.287-31.152-22.5-37.425-40a63.73,63.73,0,0,1,4.232-52.692,14.946,14.946,0,0,1,5.219-5.492,16.928,16.928,0,0,1,15.991-.962c7.793,3.619,10.923,12.372,7,19.555a36.831,36.831,0,0,0-2.443,30.458,40.775,40.775,0,0,0,21.634,23.127c21.328,9.9,47.412,1.956,58.147-17.7,3.923-7.182,13.417-10.067,21.207-6.455s10.926,12.374,7,19.556c-13.146,24.063-39.6,37.978-67.009,37.98A79.586,79.586,0,0,1,1562.709,1751.767ZM681.813,1474c-10.977-11.894-9.412-29.817,3.494-39.943a31.1,31.1,0,0,1,2.676-1.88c13-8.134,30.489-5.943,40.673,5.1,10.98,11.9,9.418,29.818-3.491,39.947a32.391,32.391,0,0,1-19.936,6.755A31.789,31.789,0,0,1,681.813,1474Zm2179.648-67.007c-5.531-21.81,4.26-44.915,24.368-57.494a61.486,61.486,0,0,1,19.729-7.961c31.73-6.837,63.57,11.4,70.987,40.64,5.534,21.81-4.254,44.92-24.359,57.5a61.486,61.486,0,0,1-19.718,7.955,63.85,63.85,0,0,1-13.467,1.439C2892.167,1449.071,2867.821,1432.086,2861.46,1406.993Zm51.287-37.1a28.648,28.648,0,0,0-9.185,3.7c-9.358,5.857-13.92,16.617-11.344,26.766,3.451,13.617,18.28,22.1,33.056,18.916a28.589,28.589,0,0,0,9.173-3.694c9.355-5.854,13.911-16.614,11.338-26.769-2.964-11.679-14.3-19.586-26.78-19.587A29.719,29.719,0,0,0,2912.748,1369.894ZM30.754,1330.1l-20.665-7.378a15.3,15.3,0,0,1-8.743-7.7,13.5,13.5,0,0,1-.279-11.137l8.008-19.05a14.84,14.84,0,0,1,5.861-6.789,16.339,16.339,0,0,1,2.491-1.272,17.026,17.026,0,0,1,12.085-.254l20.659,7.381c8.128,2.9,12.167,11.337,9.015,18.829l-8,19.042a15.121,15.121,0,0,1-8.347,8.065,17.08,17.08,0,0,1-12.088.262Zm2167.723-17.474L2141.8,1271a13.871,13.871,0,0,1-4.95-16.5l25.436-62.57a14.822,14.822,0,0,1,5.922-6.94,16.766,16.766,0,0,1,9.57-2.5l72.409,2.957c6.836.279,12.7,4.588,14.522,10.666l19.315,64.4a14.021,14.021,0,0,1-6.357,15.928l-.164.1-60.479,36.833a16.887,16.887,0,0,1-18.549-.756Zm-28.016-57.815,38.729,28.443,41.324-25.171-13.194-44.007-49.48-2.021Zm-814.43-75.7-32.363-59.773a13.738,13.738,0,0,1,3.058-16.886L1378.4,1055.6a15.616,15.616,0,0,1,2.213-1.671,16.936,16.936,0,0,1,16.151-.868l64.305,30.814c6.07,2.908,9.415,9.091,8.289,15.314l-11.931,65.909c-1.12,6.217-6.464,11.067-13.239,12.005l-71.683,9.908a17.191,17.191,0,0,1-2.342.161A15.991,15.991,0,0,1,1356.031,1179.118Zm1.029-63.317,22.112,40.845,48.983-6.775,8.153-45.037-43.943-21.059ZM74.315,1094.175a15.923,15.923,0,0,1-10.1-6.128l-47.836-65.033c-4.9-6.652-3.012-15.7,4.205-20.219l0,0,70.544-44.1c7.22-4.518,17.041-2.78,21.934,3.876l47.836,65.028c4.9,6.652,3.015,15.705-4.2,20.22l0,0-70.548,44.108a16.745,16.745,0,0,1-8.866,2.513A16.99,16.99,0,0,1,74.315,1094.175Zm-22.921-75.456,30.108,40.93,44.4-27.758-30.108-40.93Zm349.19,56.42L329.5,1062.063c-6.709-1.234-11.795-6.31-12.594-12.576l-8.468-66.352a14.148,14.148,0,0,1,6.812-13.746,16.222,16.222,0,0,1,2.268-1.18l65.837-27.952a16.753,16.753,0,0,1,18.213,3.349l49.168,49.1a13.691,13.691,0,0,1,2.168,17l-35.454,58.275a16.066,16.066,0,0,1-13.768,7.444A17.146,17.146,0,0,1,400.585,1075.139Zm-59.431-84.9,5.785,45.34,48.578,8.932,24.228-39.822-33.6-33.549Zm948.5-51.455-90.828-27.89c-8.28-2.542-12.748-10.785-9.993-18.418a14.741,14.741,0,0,1,6.106-7.439,16.9,16.9,0,0,1,13.872-1.771l90.828,27.887c8.277,2.542,12.748,10.786,9.994,18.42-2.2,6.1-8.367,9.962-14.982,9.962A16.967,16.967,0,0,1,1289.658,938.782Zm-716.6-7.518a16.265,16.265,0,0,1-10.723-5.154l-14.232-15.662a13.815,13.815,0,0,1-3.624-10.632,14.249,14.249,0,0,1,5.595-9.88l16.993-13.118q.622-.478,1.29-.893a16.728,16.728,0,0,1,20.959,2.707l14.223,15.653a13.8,13.8,0,0,1-1.965,20.511l-16.984,13.122a16.687,16.687,0,0,1-10.153,3.4Q573.753,931.32,573.062,931.264Zm591.222-141.072-58.49-83.673a13.585,13.585,0,0,1-.769-14.542,14.968,14.968,0,0,1,5.18-5.393,16.661,16.661,0,0,1,8.1-2.494l107.86-4.867a16.218,16.218,0,0,1,14.047,6.653,13.582,13.582,0,0,1,.769,14.544l-49.371,88.54a15.932,15.932,0,0,1-13.278,7.886c-.259.013-.517.017-.774.017A16.166,16.166,0,0,1,1164.285,790.192Zm-17.114-78.249,28.854,41.276,24.355-43.679ZM886.862,424.456c-4.862-6.655-2.964-15.677,4.232-20.181.015-.009.03-.019.048-.028l79.415-49.3c7.235-4.494,17.053-2.727,21.921,3.942s2.964,15.676-4.232,20.181c-.015.008-.03.019-.048.028l-79.415,49.3a16.692,16.692,0,0,1-8.811,2.485A16.171,16.171,0,0,1,886.862,424.456ZM1970.8,423.4c-5.259-6.414-3.884-15.544,3.073-20.394l181.708-126.691c.218-.154.442-.3.669-.441,6.912-4.322,16.36-2.941,21.458,3.27,5.259,6.415,3.881,15.546-3.076,20.4l-181.7,126.69a16.65,16.65,0,0,1-9.522,2.95A16.261,16.261,0,0,1,1970.8,423.4ZM1713.88,305.22c-8.719-.153-15.652-6.8-15.485-14.833s7.372-14.441,16.1-14.278c23.853.415,43.652-17.137,44.118-39.134s-18.582-40.251-42.45-40.675c-8.722-.154-15.655-6.8-15.485-14.841a14.3,14.3,0,0,1,6.936-11.769,16.65,16.65,0,0,1,9.164-2.5c41.285.738,74.22,32.3,73.421,70.346-.8,37.607-34.239,67.7-74.867,67.7C1714.85,305.234,1714.366,305.229,1713.88,305.22Zm-248.8-46.137c-15.267-6.817-21.673-23.8-14.289-37.869a29.179,29.179,0,0,1,10.4-11.1,33.1,33.1,0,0,1,30.668-2.074c15.261,6.806,21.673,23.789,14.292,37.863a29.178,29.178,0,0,1-10.405,11.1,33.118,33.118,0,0,1-30.665,2.079Zm-21.056-158.937c-27.3-16.408-35.027-50.228-17.229-75.4a56.514,56.514,0,0,1,16.291-15.314,63.176,63.176,0,0,1,65.5-.561c13.215,7.944,22.288,20.161,25.536,34.4a50.651,50.651,0,0,1-8.328,40.981,56.585,56.585,0,0,1-16.3,15.325,63.162,63.162,0,0,1-65.477.567Zm16.8-66.618a26.3,26.3,0,0,0-7.565,7.124c-8.283,11.716-4.689,27.458,8.02,35.1a29.4,29.4,0,0,0,30.486-.261,26.282,26.282,0,0,0,7.574-7.138,23.58,23.58,0,0,0,3.878-19.072,25.248,25.248,0,0,0-11.886-16.006,29.407,29.407,0,0,0-30.507.258Z" transform="translate(-8965.823 4475.862)" fill="#9f00ee"/>
          <path id="SHAPE-5" data-name="SHAPE" d="M1443.316,2539.588a31.585,31.585,0,0,1-21.16-9.5,26.811,26.811,0,0,1-7.667-20.513,27.794,27.794,0,0,1,13.435-21.741,32.861,32.861,0,0,1,19.123-4.836c16.914.945,29.847,14.4,28.825,30a27.8,27.8,0,0,1-13.437,21.748,32.846,32.846,0,0,1-17.311,4.891Q1444.221,2539.637,1443.316,2539.588Zm-133.337-164.455-5.389-19.808a14.044,14.044,0,0,1,6.453-15.595,16.452,16.452,0,0,1,5.027-2.074l21.5-4.979a16.976,16.976,0,0,1,11.963,1.63,14.711,14.711,0,0,1,7.2,8.953l5.381,19.815c2.119,7.8-3.012,15.71-11.481,17.658l-21.49,4.972a17.129,17.129,0,0,1-3.861.443C1318.209,2386.147,1311.778,2381.739,1309.979,2375.132Zm558.238-91.209c-12.529-14.368-18.226-32.381-16.056-50.71s11.959-34.783,27.557-46.333q2.41-1.784,4.942-3.371a79.266,79.266,0,0,1,50.069-11.445c19.888,1.994,37.737,11.009,50.256,25.385a13.805,13.805,0,0,1-2.433,20.467,16.69,16.69,0,0,1-22.209-2.233,43.993,43.993,0,0,0-29.042-14.672,45.509,45.509,0,0,0-31.8,8.565,38.943,38.943,0,0,0-15.935,26.786,37.528,37.528,0,0,0,9.281,29.325,13.8,13.8,0,0,1-2.426,20.467,16.676,16.676,0,0,1-9.9,3.208A16.281,16.281,0,0,1,1868.217,2283.923Zm-163.032-141.578c-14.284-6.193-25.09-17.141-30.437-30.831a50.252,50.252,0,0,1,2.147-41.638,55.97,55.97,0,0,1,20.25-21.861,63.715,63.715,0,0,1,58.391-4.243c29.481,12.79,42.17,45.306,28.283,72.485a55.932,55.932,0,0,1-20.24,21.847,63.726,63.726,0,0,1-58.393,4.242Zm9.695-70.242a26.031,26.031,0,0,0-9.408,10.169,23.379,23.379,0,0,0-1,19.374A26.077,26.077,0,0,0,1718.642,2116a29.691,29.691,0,0,0,27.2-1.985,25.978,25.978,0,0,0,9.4-10.159c6.466-12.652.557-27.785-13.157-33.74a29.522,29.522,0,0,0-11.743-2.441A29.122,29.122,0,0,0,1714.88,2072.1ZM2520.2,1719.451l-107.879-4.315a15.95,15.95,0,0,1-13.323-7.819,13.591,13.591,0,0,1,.693-14.547l58.035-83.961a15.156,15.156,0,0,1,4.449-4.223,16.793,16.793,0,0,1,9.559-2.5,15.945,15.945,0,0,1,13.323,7.819l49.845,88.276a13.587,13.587,0,0,1-.691,14.545,16.167,16.167,0,0,1-13.337,6.74C2520.648,1719.464,2520.424,1719.459,2520.2,1719.451Zm-79.166-32.314,53.217,2.13-24.589-43.55Zm-462.588-102.182-69.3-74.082a14.991,14.991,0,0,1-2.4-2.566c-4.9-6.653-3.016-15.707,4.205-20.225.025-.017.059-.039.086-.056a16.533,16.533,0,0,1,5.919-2.255l106.085-18.615a16.578,16.578,0,0,1,14.911,4.792,13.692,13.692,0,0,1,2.948,14.3l-35.585,93.99a15.462,15.462,0,0,1-11.963,9.509,17.139,17.139,0,0,1-2.955.257A16.38,16.38,0,0,1,1978.445,1584.955Zm-28.715-75.3,34.78,37.185,17.557-46.37ZM921.74,1367.3c-2.386-20.117,7.423-39.677,25.6-51.05a62.489,62.489,0,0,1,26.709-9.058c32.389-3.276,61.628,18.348,65.182,48.2,2.384,20.109-7.421,39.665-25.6,51.038a62.441,62.441,0,0,1-26.711,9.057,64.722,64.722,0,0,1-6.493.328C950.706,1415.816,925.05,1395.136,921.74,1367.3Zm55.75-31.165a28.659,28.659,0,0,0-12.417,4.2c-8.473,5.3-13.043,14.411-11.933,23.782,1.654,13.891,15.267,23.951,30.345,22.428a28.646,28.646,0,0,0,12.415-4.2c8.469-5.3,13.038-14.409,11.932-23.769-1.543-12.964-13.492-22.594-27.327-22.594A30.038,30.038,0,0,0,977.49,1336.131Zm-224.543-57.045-12.375-16.945a13.642,13.642,0,0,1-2.4-10.925,14.541,14.541,0,0,1,6.633-9.253.562.562,0,0,0,.057-.036l18.393-11.4a16.884,16.884,0,0,1,11.851-2.209,15.9,15.9,0,0,1,10.068,6.161l12.362,16.946c4.854,6.654,2.953,15.666-4.242,20.169a.383.383,0,0,1-.051.034l-18.38,11.4a16.684,16.684,0,0,1-8.809,2.486A16.173,16.173,0,0,1,752.947,1279.086Zm1128.681-22.194c-8.528-1.69-13.953-9.429-12.117-17.292l47.934-205.3a14.543,14.543,0,0,1,6.572-8.983,16.847,16.847,0,0,1,12.192-2.192c8.528,1.69,13.953,9.429,12.117,17.292l-47.934,205.3c-1.6,6.833-8.152,11.5-15.433,11.505A17.1,17.1,0,0,1,1881.628,1256.892Zm-1433.9-54.838-71.127-43.26a14.573,14.573,0,0,1-6.773-9.225,13.641,13.641,0,0,1,2.3-10.942l46.961-65.576a15.1,15.1,0,0,1,4.3-4.03,16.915,16.915,0,0,1,17.576-.1l71.124,43.262c7.28,4.423,9.287,13.455,4.477,20.167l-46.957,65.574a16.116,16.116,0,0,1-13.181,6.549A16.723,16.723,0,0,1,447.731,1202.054Zm-40.542-59.547,44.763,27.226,29.553-41.268-44.762-27.228Zm720.189,35.814c-16.429-3.847-26.4-19.295-22.229-34.441a28.493,28.493,0,0,1,12.538-16.488,32.946,32.946,0,0,1,24.85-4.02c16.434,3.863,26.394,19.315,22.216,34.449a28.493,28.493,0,0,1-12.533,16.471,32.68,32.68,0,0,1-17.293,4.9A33.164,33.164,0,0,1,1127.379,1178.321Zm1613.563-109.984-203.3-94.656c-7.785-3.623-10.906-12.381-6.969-19.559a14.918,14.918,0,0,1,5.214-5.477,16.935,16.935,0,0,1,16.006-.956l203.3,94.66c7.785,3.623,10.9,12.38,6.969,19.556a16.01,16.01,0,0,1-14.114,8A16.793,16.793,0,0,1,2740.942,1068.337ZM492.517,938.768l-72.062-7.152c-6.8-.669-12.362-5.307-13.762-11.48l-14.865-65.382a14.067,14.067,0,0,1,6.587-15.031c.329-.206.667-.4,1.011-.587l62.862-33.26a16.862,16.862,0,0,1,18.463,1.829l53.725,44.82a13.77,13.77,0,0,1,3.808,16.749L508.62,930.244a15.917,15.917,0,0,1-14.408,8.608Q493.37,938.852,492.517,938.768ZM425.1,859.124,435.256,903.8l49.242,4.884,20.27-41.663L468.055,836.4Zm1446.094-94.066-14.144-87.272a14.128,14.128,0,0,1,6.758-14.211,16.541,16.541,0,0,1,6.526-2.346c8.629-1.189,16.668,4.29,17.954,12.241l14.143,87.271c1.292,7.956-4.672,15.356-13.284,16.557a17.264,17.264,0,0,1-2.357.162C1879.1,777.462,1872.363,772.281,1871.194,765.059Zm503.148-108.095c-16.866-9.9-28.533-25.269-32.857-43.27a64.126,64.126,0,0,1,9.976-52.029,15.148,15.148,0,0,1,4.44-4.219,16.922,16.922,0,0,1,17.37-.233c7.355,4.32,9.513,13.32,4.823,20.1a37.067,37.067,0,0,0-5.765,30.076,39.831,39.831,0,0,0,19,25.021c20.126,11.817,46.946,6.322,59.778-12.224,4.692-6.783,14.457-8.777,21.808-4.455s9.515,13.32,4.825,20.1c-14.265,20.631-38.534,31.921-63.295,31.922A79.073,79.073,0,0,1,2374.342,656.964ZM28.881,618.354a31.58,31.58,0,0,1-21.156-9.5A26.79,26.79,0,0,1,.06,588.348a27.777,27.777,0,0,1,13.435-21.743,32.841,32.841,0,0,1,19.123-4.834,31.542,31.542,0,0,1,21.154,9.5,26.816,26.816,0,0,1,7.666,20.5A27.8,27.8,0,0,1,48,613.514,32.829,32.829,0,0,1,30.7,618.4Q29.79,618.4,28.881,618.354Zm1628.481-28.2-32.683-59.607a13.725,13.725,0,0,1,2.964-16.892l51.411-47.11a15.73,15.73,0,0,1,2.27-1.723,16.95,16.95,0,0,1,16.081-.907l64.469,30.51c6.085,2.88,9.469,9.05,8.374,15.273l-11.579,65.956c-1.1,6.225-6.42,11.091-13.172,12.068l-71.618,10.249a17.138,17.138,0,0,1-2.429.173A15.988,15.988,0,0,1,1657.362,590.15Zm.686-63.308,22.334,40.729,48.938-7,7.912-45.072-44.054-20.848Zm-634.763-65.689-86.623-37.547c-7.89-3.424-11.277-12.1-7.564-19.371a14.9,14.9,0,0,1,5.407-5.844,16.944,16.944,0,0,1,15.609-1.136l86.622,37.547c7.89,3.422,11.277,12.1,7.565,19.369a15.962,15.962,0,0,1-14.307,8.369A16.863,16.863,0,0,1,1023.284,461.154Zm-569.5-98.464c-12.527-14.37-18.224-32.379-16.054-50.71s11.957-34.783,27.555-46.334q2.413-1.779,4.944-3.366A79.23,79.23,0,0,1,520.3,250.837c19.888,1.992,37.737,11.009,50.255,25.381a13.806,13.806,0,0,1-2.432,20.472c-6.938,5.011-16.75,4.033-22.205-2.232a44.012,44.012,0,0,0-29.047-14.676,45.755,45.755,0,0,0-31.806,8.562,38.974,38.974,0,0,0-15.935,26.785,37.543,37.543,0,0,0,9.285,29.329,13.8,13.8,0,0,1-2.43,20.465,16.68,16.68,0,0,1-22.2-2.232ZM1719.331,110.935l-85.148-3.337a16.392,16.392,0,0,1-10.961-4.7,13.923,13.923,0,0,1-4.145-10.469l3.658-78.493a14.341,14.341,0,0,1,6.927-11.429,16.687,16.687,0,0,1,9.533-2.5l85.15,3.34a16.363,16.363,0,0,1,10.963,4.7,13.924,13.924,0,0,1,4.145,10.467l-3.661,78.49c-.372,7.815-7.356,13.938-15.767,13.938Q1719.679,110.949,1719.331,110.935Zm-68.014-31.809,53.59,2.1,2.3-49.4-53.592-2.1Z" transform="translate(-1908.106 -498.031)" fill="#ff00ce"/>
          <path id="SHAPE-6" data-name="SHAPE" d="M1470.025,2818.453c-6.961-4.839-8.348-13.969-3.094-20.388l57.684-70.487a15.4,15.4,0,0,1,3.74-3.287,16.91,16.91,0,0,1,18.386.418c6.961,4.839,8.344,13.967,3.09,20.389l-57.682,70.487a16.268,16.268,0,0,1-12.629,5.8A16.619,16.619,0,0,1,1470.025,2818.453Zm-104.036-410.374-65.664-76.812a14.959,14.959,0,0,1-1.9-2.12c-4.9-6.65-3.012-15.7,4.212-20.224a.6.6,0,0,0,.088-.054,16.578,16.578,0,0,1,6.606-2.365l106.9-14.312a16.47,16.47,0,0,1,14.669,5.391,13.643,13.643,0,0,1,2.255,14.409l-40.08,92.462a15.64,15.64,0,0,1-12.41,9.013,17.055,17.055,0,0,1-2.278.153A16.319,16.319,0,0,1,1365.989,2408.079Zm-25.062-76.385,32.959,38.553,19.774-45.614Zm443.683-55.3-62.185-201.965a14.033,14.033,0,0,1,6.331-16.033,16.422,16.422,0,0,1,4.56-1.956c8.393-2.2,17.127,2.284,19.508,10.015l62.183,201.966c2.379,7.735-2.471,15.781-10.888,17.99a17.082,17.082,0,0,1-4.332.56C1792.905,2286.971,1786.581,2282.8,1784.61,2276.394Zm501.316-304.4-8.573-18.821c-2.959-6.5-.413-13.867,5.687-17.684a16.364,16.364,0,0,1,2.768-1.381l20.433-7.919a17.035,17.035,0,0,1,12.093-.06,15.237,15.237,0,0,1,8.588,7.836l8.573,18.827a13.508,13.508,0,0,1,.054,11.142,15.287,15.287,0,0,1-8.509,7.923l-20.435,7.916a16.92,16.92,0,0,1-6.116,1.142A15.874,15.874,0,0,1,2285.926,1971.99Zm523.241-189.535c-7.25-4.469-9.192-13.509-4.338-20.194s14.667-8.483,21.916-4.014a45.988,45.988,0,0,0,32.492,5.952,43.375,43.375,0,0,0,27.567-16.974,37.133,37.133,0,0,0,6.486-29.952,39.628,39.628,0,0,0-18.4-25.4c-7.252-4.464-9.2-13.505-4.342-20.192a15.193,15.193,0,0,1,4.253-3.957,16.921,16.921,0,0,1,17.658-.062c16.628,10.24,27.929,25.84,31.816,43.921a64.234,64.234,0,0,1-11.22,51.811c-11.117,15.33-28.051,25.758-47.677,29.359a81.928,81.928,0,0,1-14.783,1.35A78.845,78.845,0,0,1,2809.166,1782.455Zm-602.421-133.66a14.424,14.424,0,0,1-6.312-9.5l-13.292-77.6a13.712,13.712,0,0,1,2.828-10.835,15.367,15.367,0,0,1,3.91-3.487,16.636,16.636,0,0,1,6.4-2.336l84.2-12.314c8.616-1.261,16.707,4.157,18.065,12.1l13.29,77.593c1.359,7.938-4.523,15.4-13.142,16.66l-84.2,12.315a17.047,17.047,0,0,1-2.475.18A16.718,16.718,0,0,1,2206.745,1648.794Zm14.069-77.28,8.362,48.838,53-7.751-8.363-48.834Zm-580.634,12.7-92.914-47.52a15.565,15.565,0,0,1-6.978-5.257c-4.9-6.65-3.009-15.705,4.212-20.226l.086-.054c.244-.152.488-.3.745-.443l92.643-51.241a16.978,16.978,0,0,1,15.795-.248,14.432,14.432,0,0,1,8.123,12.484l1.752,99.528a14.345,14.345,0,0,1-7.672,12.73,16.971,16.971,0,0,1-15.793.247Zm-55.138-61.515,46.572,23.82-.869-49.1Zm-515.953,5.517a14.173,14.173,0,0,1,6.852-13.6,16.614,16.614,0,0,1,7.187-2.421l95.22-9.4c8.674-.856,16.455,4.932,17.376,12.924s-5.368,15.172-14.039,16.027l-95.22,9.4q-.857.084-1.7.084C1076.8,1541.227,1069.949,1535.684,1069.089,1528.217Zm1752.889-20.171a30.116,30.116,0,0,1-18.227-13.711,26.18,26.18,0,0,1-2.354-21.583,28.74,28.74,0,0,1,12.179-15.286,32.849,32.849,0,0,1,26.148-3.7c16.227,4.5,25.454,20.328,20.564,35.293a28.722,28.722,0,0,1-12.175,15.285,32.563,32.563,0,0,1-17.26,4.91A33.218,33.218,0,0,1,2821.978,1508.047Zm-2084.139-48.31c-15.831-11.264-25.953-27.531-28.5-45.815s2.792-36.4,15.025-51a15.444,15.444,0,0,1,3.633-3.154,16.9,16.9,0,0,1,18.527.524,13.808,13.808,0,0,1,2.837,20.419,37.415,37.415,0,0,0-8.686,29.477,39.043,39.043,0,0,0,16.476,26.492c18.891,13.434,46.118,10.2,60.742-7.233a16.741,16.741,0,0,1,22.159-2.63,13.806,13.806,0,0,1,2.835,20.42c-14.741,17.609-36.958,26.84-59.4,26.842A78.7,78.7,0,0,1,737.839,1459.736Zm440.416-71.859a14.074,14.074,0,0,1,6.556-15.238,16.582,16.582,0,0,1,5.417-2.16l222.338-46c8.515-1.76,16.958,3.176,18.865,11.018s-3.453,15.617-11.971,17.4l-222.338,46a17.154,17.154,0,0,1-3.473.357C1186.419,1399.252,1179.9,1394.648,1178.255,1387.877ZM24.428,1362.007a15.838,15.838,0,0,1-9.934-6.349L2.512,1338.49c-4.649-6.659-2.655-15.5,4.417-19.922.109-.067.216-.137.329-.2L25.9,1307.308a16.9,16.9,0,0,1,11.9-1.988,15.823,15.823,0,0,1,9.931,6.344l11.979,17.166c4.649,6.656,2.655,15.5-4.417,19.921-.1.065-.212.132-.323.2l-18.641,11.063a16.778,16.778,0,0,1-8.56,2.323A17.131,17.131,0,0,1,24.428,1362.007Zm2125.444-216.769-54.941-43.536a13.8,13.8,0,0,1-4.267-16.651l27.979-61.647a14.86,14.86,0,0,1,5.706-6.434,16.817,16.817,0,0,1,10.16-2.471l72.246,5.429c6.82.514,12.5,5.014,14.078,11.154l16.666,65.008a14.128,14.128,0,0,1-7.171,15.791l-61.949,34.746a16.805,16.805,0,0,1-8.218,2.126A16.575,16.575,0,0,1,2149.872,1145.237Zm-25.631-58.727,37.542,29.748,42.328-23.745-11.386-44.419-49.368-3.711ZM426.628,1022.35c-1.024-10.272,4.1-20.262,13.369-26.064a32.856,32.856,0,0,1,36.917,1.653,27.526,27.526,0,0,1,10.952,19.2c1.028,10.259-4.092,20.25-13.371,26.054a32.515,32.515,0,0,1-14.433,4.77q-1.434.121-2.849.121C441.515,1048.087,428.087,1037.026,426.628,1022.35ZM644.884,905.437c-3.558-20.762,6.348-41.809,25.227-53.623a61.648,61.648,0,0,1,23.933-8.718c32.187-4.709,62.517,15.6,67.61,45.261,3.554,20.759-6.354,41.805-25.237,53.623a61.656,61.656,0,0,1-23.934,8.714,64.229,64.229,0,0,1-9.294.677C674.645,951.374,649.472,932.223,644.884,905.437Zm54.089-33.582a28.656,28.656,0,0,0-11.13,4.044c-8.792,5.5-13.406,15.3-11.75,24.972,2.366,13.806,16.476,23.259,31.46,21.066a28.6,28.6,0,0,0,11.13-4.045c8.8-5.507,13.414-15.307,11.757-24.97-2.136-12.466-13.854-21.382-27.138-21.382A29.925,29.925,0,0,0,698.973,871.855Zm423.162,28.213-16.792-77.014a13.638,13.638,0,0,1,2.336-10.936,15.234,15.234,0,0,1,4.285-3.988,16.569,16.569,0,0,1,5.757-2.231l83.577-15.534c8.556-1.588,16.881,3.512,18.6,11.392l16.8,77.012a13.637,13.637,0,0,1-2.336,10.935,15.906,15.906,0,0,1-10.04,6.218l-83.583,15.537a17.212,17.212,0,0,1-3.138.29C1130.228,911.75,1123.643,906.978,1122.135,900.068Zm17.294-68.5L1150,880.037l52.6-9.777-10.571-48.474ZM2208.6,870.928c-21.469-22.573-19-57.054,5.5-76.862a59.127,59.127,0,0,1,5.82-4.149c24.617-15.406,57.977-11.466,77.6,9.161a51.463,51.463,0,0,1,14.51,39.48c-1.045,14.517-8.164,27.8-20.041,37.394a58.685,58.685,0,0,1-5.811,4.142,62.4,62.4,0,0,1-33.1,9.374C2236.549,889.469,2220.185,883.107,2208.6,870.928Zm26.323-54.979c-11.4,9.218-12.549,25.268-2.554,35.773,9.13,9.6,24.64,11.447,36.08,4.289a28.076,28.076,0,0,0,2.727-1.946,24.565,24.565,0,0,0,9.331-17.412,23.934,23.934,0,0,0-6.747-18.368,29.232,29.232,0,0,0-38.836-2.337ZM2109.932,57.018A15.861,15.861,0,0,1,2100,50.671L2088.011,33.5a13.605,13.605,0,0,1-2.146-10.963,14.6,14.6,0,0,1,6.569-8.963c.107-.066.216-.133.325-.2l18.647-11.062A16.918,16.918,0,0,1,2123.3.33a15.84,15.84,0,0,1,9.933,6.347l11.977,17.166a13.863,13.863,0,0,1-4.747,20.119l-18.64,11.062a16.8,16.8,0,0,1-8.562,2.321A17.117,17.117,0,0,1,2109.932,57.018Z" transform="translate(-1916.958 -1060.937)" fill="#5421ff"/>
        </g>
      </g>
    </g>
    <g id="card-number" transform="translate(3484.622 815.5)">
      <text id="_4756_" data-name=" 4756 " transform="translate(0 35)" fill="#fff" font-size="50" font-family="Helvetica-Bold, Helvetica" font-weight="700"><tspan x="0" y="0" xml:space="preserve"> 4756 </tspan></text>
      <text id="_9018" data-name=" 9018" transform="translate(413.59 35)" fill="#fff" font-size="50" font-family="Helvetica-Bold, Helvetica" font-weight="700"><tspan x="0" y="0" xml:space="preserve"> 9018</tspan></text>
      <g id="CIRCLES_HIDE" data-name="CIRCLES HIDE" transform="translate(160 8.5)">
        <path id="CIRCLES_HIDE-2" data-name="CIRCLES HIDE" d="M79.96,7A7.111,7.111,0,0,1,94.179,7,7.11,7.11,0,0,1,79.96,7ZM53.311,7A7.111,7.111,0,0,1,67.53,7a7.111,7.111,0,0,1-14.22,0ZM26.649,7a7.111,7.111,0,0,1,14.22,0,7.111,7.111,0,0,1-14.22,0ZM0,7A7.054,7.054,0,0,1,7.11,0a7.054,7.054,0,0,1,7.109,7A7.055,7.055,0,0,1,7.11,14,7.056,7.056,0,0,1,0,7Z" fill="#fff"/>
        <path id="CIRCLES_HIDE-3" data-name="CIRCLES HIDE" d="M79.97,7A7.112,7.112,0,0,1,94.191,7,7.112,7.112,0,0,1,79.97,7ZM53.311,7A7.112,7.112,0,0,1,67.532,7,7.112,7.112,0,0,1,53.311,7ZM26.661,7a7.111,7.111,0,0,1,14.22,0,7.111,7.111,0,0,1-14.22,0ZM0,7A7.054,7.054,0,0,1,7.112,0a7.054,7.054,0,0,1,7.11,7,7.056,7.056,0,0,1-7.11,7A7.056,7.056,0,0,1,0,7Z" transform="translate(124.398)" fill="#fff"/>
      </g>
    </g>
    <g id="new-card" transform="translate(3483.258 660.878)">
      <g id="MASTERCARD_-_WHITE_LOGO_-_STYLE_1" data-name="MASTERCARD - WHITE LOGO - STYLE 1" transform="translate(579.16 297.182)">
        <ellipse id="WHITE" cx="35.98" cy="35.97" rx="35.98" ry="35.97" transform="translate(44.97)" fill="#fff" opacity="0.6"/>
        <ellipse id="WHITE-2" data-name="WHITE" cx="35.98" cy="35.97" rx="35.98" ry="35.97" fill="#fff"/>
      </g>
    </g>
  </g>
</svg>
