<svg viewBox="-32 1 511 511.99998" xmlns="http://www.w3.org/2000/svg"><path d="m447.210938 223.355469c0 123.355469-128.574219 288.644531-223.355469 288.644531s-223.355469-165.289062-223.355469-288.644531 100-223.355469 223.355469-223.355469 223.355469 100 223.355469 223.355469zm0 0" fill="#b1ef97"/><path d="m220.757812.0195312c-121.910156 1.6796878-220.257812 101.0273438-220.257812 223.3359378 0 122.921875 127.671875 287.484375 222.355469 288.636719-9.753907-118.527344-60.578125-195.65625-87.078125-346.355469-16.015625-91.078125 33.3125-139.792969 84.980468-165.6171878zm0 0" fill="#92dd7a"/><g fill="#898890"><path d="m356.726562 325.695312c32.65625-32.652343 42.886719-75.367187 22.851563-95.402343-20.035156-20.039063-62.75-9.808594-95.40625 22.847656s-42.886719 75.371094-22.851563 95.40625c20.039063 20.035156 62.75 9.804687 95.40625-22.851563zm0 0"/><path d="m90.984375 325.703125c32.65625 32.65625 75.371094 42.886719 95.40625 22.847656 20.035156-20.035156 9.804687-62.75-22.847656-95.402343-32.65625-32.65625-75.371094-42.886719-95.40625-22.851563-20.035157 20.035156-9.804688 62.75 22.847656 95.40625zm0 0"/><path d="m223.855469 402.941406c-10 0-20-3.238281-28.34375-9.710937-3.375-2.613281-3.984375-7.46875-1.371094-10.839844s7.46875-3.984375 10.839844-1.371094c11.113281 8.621094 26.632812 8.621094 37.746093 0 3.371094-2.613281 8.226563-2 10.839844 1.371094 2.617188 3.371094 2.003906 8.226563-1.367187 10.839844-8.34375 6.472656-18.34375 9.710937-28.34375 9.710937zm0 0"/></g><path d="m68.132812 230.296875c-20.035156 20.035156-9.804687 62.75 22.847657 95.40625 19.085937 19.082031 41.597656 30.503906 61.015625 32.707031-2.203125-.464844-34.46875-8.128906-43.484375-58-9.222657-51.039062 55.027343-47.265625 55.027343-47.265625-32.65625-32.652343-75.371093-42.882812-95.40625-22.847656zm0 0" fill="#75747a"/><path d="m379.578125 230.296875c20.035156 20.035156 9.804687 62.75-22.851563 95.40625-19.082031 19.082031-41.589843 30.503906-61.011718 32.707031 2.203125-.464844 34.46875-8.128906 43.480468-58 9.226563-51.039062-55.023437-47.265625-55.023437-47.265625 32.65625-32.652343 75.371094-42.882812 95.40625-22.847656zm0 0" fill="#75747a"/></svg>