<?xml version="1.0" encoding="iso-8859-1"?>
<!-- Generator: Adobe Illustrator 19.0.0, SVG Export Plug-In . SVG Version: 6.00 Build 0)  -->
<svg version="1.1" id="Capa_1" xmlns="http://www.w3.org/2000/svg" xmlns:xlink="http://www.w3.org/1999/xlink" x="0px" y="0px"
	 viewBox="0 0 512 512" style="enable-background:new 0 0 512 512;" xml:space="preserve">
<path style="fill:#FFC107;" d="M160,336v32c0,44.2,78.8,80,176,80s176-35.8,176-80v-32H160z"/>
<ellipse style="fill:#FFD54F;" cx="336" cy="336" rx="176" ry="80"/>
<g>
	<path style="fill:#FFE082;" d="M448,397.7v32c12.2-4.6,22.9-9.9,32-15.8V384h-3.5C468.2,389.1,458.7,393.7,448,397.7z"/>
	<path style="fill:#FFE082;" d="M384,412.9v32c11.2-1.4,21.9-3.4,32-5.7v-32C405.9,409.6,395.2,411.5,384,412.9z"/>
</g>
<path style="fill:#FFC107;" d="M160,272v32c0,44.2,78.8,80,176,80s176-35.8,176-80v-32H160z"/>
<ellipse style="fill:#FFD54F;" cx="336" cy="272" rx="176" ry="80"/>
<g>
	<path style="fill:#FFE082;" d="M448,333.7v32c12.2-4.6,22.9-9.9,32-15.8V320h-3.5C468.2,325.1,458.7,329.7,448,333.7z"/>
	<path style="fill:#FFE082;" d="M384,348.9v32c11.2-1.4,21.9-3.4,32-5.7v-32C405.9,345.6,395.2,347.5,384,348.9z"/>
</g>
<path style="fill:#FFC107;" d="M160,208v32c0,44.2,78.8,80,176,80s176-35.8,176-80v-32H160z"/>
<ellipse style="fill:#FFD54F;" cx="336" cy="208" rx="176" ry="80"/>
<g>
	<path style="fill:#FFE082;" d="M448,269.7v32c12.2-4.6,22.9-9.9,32-15.8V256h-3.5C468.2,261.1,458.7,265.7,448,269.7z"/>
	<path style="fill:#FFE082;" d="M384,284.9v32c11.2-1.4,21.9-3.4,32-5.7v-32C405.9,281.6,395.2,283.5,384,284.9z"/>
</g>
<path style="fill:#FFC107;" d="M160,144v32c0,44.2,78.8,80,176,80s176-35.8,176-80v-32H160z"/>
<ellipse style="fill:#FFD54F;" cx="336" cy="144" rx="176" ry="80"/>
<g>
	<path style="fill:#FFE082;" d="M448,205.7v32c12.2-4.6,22.9-9.9,32-15.8V192h-3.5C468.2,197.1,458.7,201.7,448,205.7z"/>
	<path style="fill:#FFE082;" d="M384,220.9v32c11.2-1.4,21.9-3.4,32-5.7v-32C405.9,217.6,395.2,219.5,384,220.9z"/>
</g>
<path style="fill:#FFC107;" d="M160,80v32c0,44.2,78.8,80,176,80s176-35.8,176-80V80H160z"/>
<ellipse style="fill:#FFD54F;" cx="336" cy="80" rx="176" ry="80"/>
<g>
	<path style="fill:#FFE082;" d="M448,141.7v32c12.2-4.6,22.9-9.9,32-15.8V128h-3.5C468.2,133.1,458.7,137.7,448,141.7z"/>
	<path style="fill:#FFE082;" d="M384,156.9v32c11.2-1.4,21.9-3.4,32-5.7v-32C405.9,153.6,395.2,155.5,384,156.9z"/>
</g>
<path style="fill:#FAFAFA;" d="M161.3,193.1c-2,4.8-2.4,9.8-2.4,14.9l1.1,160c0,38.8,59.8,72.7,140.4,80
	c11.8-23.6,19.6-51.8,19.6-80C320,277.3,249.5,202.7,161.3,193.1z"/>
<circle style="fill:#FFD54F;" cx="144" cy="368" r="144"/>
<path style="fill:#FAFAFA;" d="M192,392c0-22-21.5-40-48-40c-9.8,0-16-5.2-16-8s6.2-8,16-8c4.9,0,9.2,1.2,12.5,3.4
	c7.4,4.9,17.3,2.9,22.2-4.4c4.9-7.4,2.9-17.3-4.4-22.2c-4.4-2.9-9.2-5.1-14.3-6.6V288c0-8.8-7.2-16-16-16s-16,7.2-16,16v18.5
	c-18.6,5.5-32,20.2-32,37.5c0,22,21.5,40,48,40c9.8,0,16,5.2,16,8s-6.2,8-16,8c-4.9,0-9.2-1.2-12.5-3.4c-7.4-4.8-17.3-2.9-22.2,4.4
	c-4.9,7.4-2.9,17.3,4.4,22.2c4.4,2.9,9.2,5.1,14.3,6.6V448c0,8.8,7.2,16,16,16s16-7.2,16-16v-18.5C178.6,424,192,409.4,192,392z"/>
<g>
</g>
<g>
</g>
<g>
</g>
<g>
</g>
<g>
</g>
<g>
</g>
<g>
</g>
<g>
</g>
<g>
</g>
<g>
</g>
<g>
</g>
<g>
</g>
<g>
</g>
<g>
</g>
<g>
</g>
</svg>
