<svg xmlns="http://www.w3.org/2000/svg" width="168" height="168" viewBox="0 0 168 168">
  <g id="icon-tx" transform="translate(-1650 -591)">
    <rect id="Rectangle_2146" data-name="Rectangle 2146" width="168" height="168" rx="20" transform="translate(1650 591)" fill="none"/>
    <g id="rocket-launch" transform="translate(1663.639 512.057) rotate(41)">
      <g id="Group_1126" data-name="Group 1126" transform="translate(127.4 11.075)">
        <path id="Path_1" data-name="Path 1" d="M183.886,77.132c2-23.713-5.753-47.886-22.022-65.265a2.587,2.587,0,0,0-3.725,0c-16.269,17.379-24.024,41.525-22.022,65.265a36.5,36.5,0,0,0,.279,47.67c1.419,1.6,5.043.866,4.46-2.653a33.772,33.772,0,0,1-.684-5.387,21.943,21.943,0,0,1,3.548-12.073,2.56,2.56,0,0,0,1.267.352h30.03a2.56,2.56,0,0,0,1.267-.352,21.943,21.943,0,0,1,3.548,12.073,41.372,41.372,0,0,1-.684,5.387c-.532,3.9,3.269,4.033,4.46,2.653a36.5,36.5,0,0,0,.279-47.67Zm-23.9-59.2A75.711,75.711,0,0,1,171.545,35.9H148.459A74.305,74.305,0,0,1,159.989,17.93Zm-24.835,95.015a30.991,30.991,0,0,1,1.977-28.071c.025.217,2.788,11.5,3.852,14.4a27.148,27.148,0,0,0-5.829,13.67Zm38.114-13.562H146.71a81.231,81.231,0,0,1-.608-57.875h27.774A81.231,81.231,0,0,1,173.268,99.383Zm5.753-.108c1.47-4.033,3.827-14.239,3.852-14.4a30.276,30.276,0,0,1,4.435,15.944,31.026,31.026,0,0,1-2.458,12.127,27.6,27.6,0,0,0-5.829-13.67Z" transform="translate(-127.4 -11.075)"/>
        <path id="Path_2" data-name="Path 2" d="M206.133,375.6a2.631,2.631,0,0,0-2.633,2.633v13.242a2.633,2.633,0,0,0,5.266,0V378.233A2.631,2.631,0,0,0,206.133,375.6Z" transform="translate(-184.214 -275.899)"/>
        <path id="Path_3" data-name="Path 3" d="M248.159,375.6a2.641,2.641,0,0,0-1.874.785l-.025.025a2.646,2.646,0,0,0-.658,1.165,3.192,3.192,0,0,0-.1.709v26.459a2.5,2.5,0,0,0,.076.608,2.627,2.627,0,0,0,5.115,0,2.5,2.5,0,0,0,.076-.608V378.233a2.184,2.184,0,0,0-.1-.709A2.561,2.561,0,0,0,248.159,375.6Z" transform="translate(-215.569 -275.899)"/>
        <path id="Path_4" data-name="Path 4" d="M290.333,375.6a2.631,2.631,0,0,0-2.633,2.633v13.242a2.633,2.633,0,0,0,5.266,0V378.233A2.6,2.6,0,0,0,290.333,375.6Z" transform="translate(-247.074 -275.899)"/>
      </g>
    </g>
  </g>
</svg>
