<svg id="Layer_1" height="512" viewBox="0 0 512 512" width="512" xmlns="http://www.w3.org/2000/svg" xmlns:xlink="http://www.w3.org/1999/xlink" data-name="Layer 1"><linearGradient id="linear-gradient" gradientUnits="userSpaceOnUse" x1="409.325" x2="409.325" y1="480" y2="69.634"><stop offset=".322" stop-color="#a163f5"/><stop offset=".466" stop-color="#b074ee"/><stop offset=".752" stop-color="#d8a1dd"/><stop offset=".898" stop-color="#efbad3"/></linearGradient><linearGradient id="linear-gradient-2" x1="389.434" x2="389.434" xlink:href="#linear-gradient" y1="480" y2="69.634"/><linearGradient id="linear-gradient-3" x1="261.257" x2="261.257" xlink:href="#linear-gradient" y1="480" y2="69.634"/><linearGradient id="linear-gradient-4" x1="334.174" x2="334.174" xlink:href="#linear-gradient" y1="480" y2="69.634"/><linearGradient id="linear-gradient-5" x1="163.918" x2="163.918" xlink:href="#linear-gradient" y1="480" y2="69.634"/><linearGradient id="linear-gradient-6" x1="213.479" x2="213.479" xlink:href="#linear-gradient" y1="480" y2="69.634"/><linearGradient id="linear-gradient-7" x1="86.872" x2="86.872" xlink:href="#linear-gradient" y1="480" y2="69.634"/><linearGradient id="linear-gradient-8" x1="345" x2="345" xlink:href="#linear-gradient" y1="480" y2="69.634"/><linearGradient id="linear-gradient-9" x1="250.454" x2="250.454" xlink:href="#linear-gradient" y1="480" y2="69.634"/><linearGradient id="linear-gradient-10" x1="325.744" x2="325.744" xlink:href="#linear-gradient" y1="480" y2="69.634"/><linearGradient id="linear-gradient-11" x1="146.138" x2="146.138" xlink:href="#linear-gradient" y1="480" y2="69.634"/><linearGradient id="linear-gradient-12" x1="140.499" x2="140.499" xlink:href="#linear-gradient" y1="480" y2="69.634"/><linearGradient id="linear-gradient-13" x1="77.583" x2="77.583" xlink:href="#linear-gradient" y1="480" y2="69.634"/><linearGradient id="linear-gradient-14" x1="128.175" x2="128.175" xlink:href="#linear-gradient" y1="480" y2="69.634"/><linearGradient id="linear-gradient-15" x1="256" x2="256" xlink:href="#linear-gradient" y1="480" y2="69.634"/><path d="m388.488 198.329a34.079 34.079 0 0 0 43.14-6.926 6 6 0 1 0 -9.057-7.872 22.084 22.084 0 0 1 -27.957 4.479 6 6 0 1 0 -6.126 10.319z" fill="url(#linear-gradient)"/><path d="m435.29 228.234a162.49 162.49 0 0 1 -92.942 10.054 6 6 0 1 0 -2.194 11.8 174.39 174.39 0 0 0 99.787-10.788 6 6 0 1 0 -4.651-11.063z" fill="url(#linear-gradient-2)"/><path d="m204.672 219.577a36.142 36.142 0 0 0 11.584 33.686 237.318 237.318 0 0 0 36.658 26.809 6 6 0 0 0 6.126-10.319 225.237 225.237 0 0 1 -34.8-25.449 24.506 24.506 0 1 1 33.217-36.034c9.96 9.3 18.538 16.113 25.5 20.244a176.225 176.225 0 0 0 27.357 13.2 6 6 0 1 0 4.258-11.219 164.241 164.241 0 0 1 -25.489-12.3c-6.218-3.692-14.1-9.982-23.432-18.7a36.836 36.836 0 0 0 -38.21-7.451 36.245 36.245 0 0 0 -22.769 27.533z" fill="url(#linear-gradient-3)"/><path d="m383.311 300.851a220.59 220.59 0 0 1 -96.237-16.984 6 6 0 0 0 -4.634 11.07 232.254 232.254 0 0 0 90.222 18.163q5.589 0 11.21-.263a6 6 0 0 0 -.561-11.987z" fill="url(#linear-gradient-4)"/><path d="m175.016 176.852a26.8 26.8 0 0 1 -9.363-36.728 6 6 0 0 0 -10.318-6.124 38.8 38.8 0 0 0 13.555 53.17 6 6 0 1 0 6.126-10.318z" fill="url(#linear-gradient-5)"/><path d="m202.381 130.761a26.825 26.825 0 0 1 3.358 43.743 6 6 0 0 0 7.626 9.265 38.81 38.81 0 0 0 -4.858-63.326 6 6 0 0 0 -6.126 10.318z" fill="url(#linear-gradient-6)"/><path d="m93.485 268.211a29.111 29.111 0 0 0 4.225.31 27.611 27.611 0 0 0 22.182-11.109 28.063 28.063 0 0 0 2.658-29.6c-3.048-5.94-5.9-12.077-8.483-18.242a6 6 0 0 0 -11.067 4.63c2.7 6.451 5.686 12.873 8.876 19.088a16 16 0 0 1 -1.545 16.875 16.023 16.023 0 0 1 -27.783-4.076c-10.208-27.357-17.786-51.97-22.526-73.159a6 6 0 1 0 -11.71 2.62c4.859 21.722 12.594 46.865 22.99 74.733a27.662 27.662 0 0 0 22.183 17.93z" fill="url(#linear-gradient-7)"/><path d="m355.262 372.313h.129a6 6 0 0 0 .124-12c-6.679-.141-13.568-.463-20.475-.958a6 6 0 0 0 -.858 11.97c7.108.512 14.201.843 21.08.988z" fill="url(#linear-gradient-8)"/><path d="m305.367 362.318a6 6 0 0 0 -5.044-6.823c-30.655-4.6-52.634-11.025-56.121-12.435a35.562 35.562 0 0 0 -45.067 17.148 35.395 35.395 0 0 0 16.865 47.74c5.978 2.775 16.028 5.942 28.3 8.918a6 6 0 1 0 2.829-11.662c-11.362-2.756-20.867-5.723-26.077-8.141a23.4 23.4 0 0 1 -11.152-31.554 23.517 23.517 0 0 1 29.805-11.323c4.573 1.848 27.013 8.405 58.838 13.176a6 6 0 0 0 6.824-5.044z" fill="url(#linear-gradient-9)"/><path d="m369.407 417.084a460.288 460.288 0 0 1 -86.688-4.985 6 6 0 0 0 -1.8 11.865 485 485 0 0 0 71.333 5.485c5.776 0 11.683-.117 17.67-.377a6 6 0 1 0 -.52-11.988z" fill="url(#linear-gradient-10)"/><path d="m139.46 285.47a28.539 28.539 0 0 0 -21.4 24.975 6 6 0 0 0 5.417 6.532c.189.017.377.026.564.026a6 6 0 0 0 5.967-5.443 16.492 16.492 0 0 1 32.409-2.5 6 6 0 1 0 11.635-2.937 28.52 28.52 0 0 0 -34.592-20.653z" fill="url(#linear-gradient-11)"/><path d="m150.47 329.078a16.572 16.572 0 0 1 -16.78-5.517 6 6 0 0 0 -9.265 7.626 28.645 28.645 0 0 0 22.075 10.383 28.2 28.2 0 0 0 6.913-.858 6 6 0 0 0 -2.938-11.634z" fill="url(#linear-gradient-12)"/><path d="m80.66 331.531a22.863 22.863 0 0 0 -19.136 37.007c6.534 8.237 13.446 16.29 20.543 23.934a6 6 0 1 0 8.794-8.165c-6.886-7.417-13.593-15.231-19.935-23.226a10.861 10.861 0 0 1 16.985-13.54 6 6 0 0 0 9.331-7.541 22.912 22.912 0 0 0 -16.582-8.469z" fill="url(#linear-gradient-13)"/><path d="m147.249 391.355c-8.684-7.382-17.173-15.3-25.231-23.522-3.088-3.151-6.171-6.409-9.164-9.682a6 6 0 0 0 -8.856 8.1c3.086 3.374 6.265 6.733 9.449 9.982 8.312 8.485 17.069 16.649 26.029 24.267a10.884 10.884 0 0 1 .611 15.978 10.843 10.843 0 0 1 -14.706.658c-4.817-4.033-9.607-8.255-14.237-12.549a6 6 0 1 0 -8.16 8.8c4.778 4.43 9.721 8.788 14.692 12.95a22.9 22.9 0 0 0 29.573-34.979z" fill="url(#linear-gradient-14)"/><path d="m384.121 40.206a250.962 250.962 0 0 0 -371.3 277.788 251.256 251.256 0 0 0 242.743 189.071 252.557 252.557 0 0 0 62.43-7.881 250.962 250.962 0 0 0 66.127-458.978zm-367.143 218.563a236.026 236.026 0 0 1 4.43-48.879c6.921 21.027 18.811 53.449 32.684 75.685a11.025 11.025 0 0 1 .687 10.464 11.019 11.019 0 0 1 -19.687.673c-12.2-22.467-17.534-37.814-17.634-38.107zm477.911 6.211a223.044 223.044 0 0 1 -74.181 30.946 6 6 0 1 0 2.561 11.724 235.05 235.05 0 0 0 70.631-27.907 236.209 236.209 0 0 1 -11.535 53.025c-24.553 14.635-55.241 23.571-91.3 26.534a6 6 0 0 0 .485 11.98c.164 0 .331-.007.5-.02 31.946-2.625 60.008-9.775 83.693-21.286a241.809 241.809 0 0 1 -33.021 55.2 261.752 261.752 0 0 1 -45.721 9.64 6 6 0 0 0 .731 11.955 6.084 6.084 0 0 0 .746-.046 293.4 293.4 0 0 0 30.074-5.293 236.091 236.091 0 0 1 -69.28 50.147c-7.077-1.007-35.906-5.294-67.262-12.52a6 6 0 0 0 -2.695 11.693c18.388 4.238 35.933 7.481 48.863 9.662q-11.311 4.119-23.14 7.144-6.768 1.725-13.569 3.045a383.179 383.179 0 0 1 -102.9-33.923 8.439 8.439 0 0 1 -2.172-13.513c2.693-2.694 6.8-3.423 9.548-1.7 11.154 7 27.415 13.749 48.33 20.071a6 6 0 0 0 3.471-11.488c-19.892-6.011-35.175-12.32-45.424-18.748-7.489-4.7-17.754-3.278-24.41 3.377a20.439 20.439 0 0 0 5.291 32.732 367.037 367.037 0 0 0 74.385 27.341q-6 .3-11.992.308a239.242 239.242 0 0 1 -231.152-180.03q-2.679-10.51-4.38-21.1 2.072 4.055 4.482 8.506a22.864 22.864 0 0 0 20.193 12.018c.261 0 .525 0 .789-.013a23.015 23.015 0 0 0 18.745-35.22c-18.8-30.132-34.447-82.087-37.28-91.793a239.534 239.534 0 0 1 16.385-40.479c.229 2.047.486 4.128.789 6.261a6 6 0 0 0 5.933 5.16 6.152 6.152 0 0 0 .851-.06 6 6 0 0 0 5.1-6.785 152.866 152.866 0 0 1 -1.7-23.72 240.363 240.363 0 0 1 28.206-36.3 270.618 270.618 0 0 0 .521 42.674c.706 7.68 1.753 15.425 3.114 23.021 1.178 6.574 2.618 13.19 4.28 19.663a6 6 0 0 0 11.623-2.985c-1.589-6.187-2.965-12.51-4.091-18.795-1.3-7.259-2.3-14.662-2.977-22a258.334 258.334 0 0 1 .791-54.543 235.943 235.943 0 0 1 43.806-31.34 235.191 235.191 0 0 0 -1.968 29.248 37.383 37.383 0 0 0 15.784 30.652 36.921 36.921 0 0 0 21.4 6.892 37.66 37.66 0 0 0 12.712-2.238 37.047 37.047 0 0 0 24.69-33.795c.242-7.294.657-14.268 1.233-20.727a6 6 0 0 0 -11.953-1.067c-.6 6.681-1.024 13.879-1.274 21.395a25.307 25.307 0 0 1 -50.6-1.068 223.049 223.049 0 0 1 3.112-36.085 241.368 241.368 0 0 1 44.2-15.965q5.075-1.294 10.17-2.358-1.389 5.049-2.513 10.938a6 6 0 1 0 11.79 2.239 108.851 108.851 0 0 1 4.028-15.585 238.833 238.833 0 0 1 35.97-2.738q5.1 0 10.178.227a117.926 117.926 0 0 0 -2.945 22.879 6 6 0 0 0 5.818 6.177q.091 0 .183 0a6 6 0 0 0 5.994-5.821 105.8 105.8 0 0 1 3.1-22.4 235.95 235.95 0 0 1 42.337 7.97c-3.75 10.1-6.566 26.328-2.57 42.446a19.355 19.355 0 0 1 -11.927 23 19.179 19.179 0 0 1 -24.618-11.5 107.22 107.22 0 0 1 -5.5-22.729 6 6 0 1 0 -11.9 1.53 119.216 119.216 0 0 0 6.113 25.276 31.116 31.116 0 0 0 40.032 18.693 31.333 31.333 0 0 0 19.455-37.153c-3.509-14.156-.519-28.37 2.4-35.974a242.016 242.016 0 0 1 85.759 50.982 50.139 50.139 0 0 1 -15.476 14.059 6 6 0 1 0 6.016 10.384 62.144 62.144 0 0 0 18.157-16.014 236.055 236.055 0 0 1 27.054 33.118 107.042 107.042 0 0 1 -28.765 18.863c-.646-.446-1.3-.878-1.984-1.283a34.109 34.109 0 0 0 -45.774 10.381 106.07 106.07 0 0 1 -16.263-1.936 17.354 17.354 0 0 1 -12.038-8.966 17.1 17.1 0 0 1 -.575-14.78l.653-1.52a17.475 17.475 0 0 1 18.817-10.172 62.058 62.058 0 0 0 20.48-.268 6 6 0 1 0 -2.127-11.81 50.067 50.067 0 0 1 -16.529.218 29.476 29.476 0 0 0 -31.667 17.294l-.653 1.519a29.28 29.28 0 0 0 21.3 40.255 117.831 117.831 0 0 0 13.624 1.889 33.969 33.969 0 0 0 1.523 19.52 6 6 0 1 0 11.195-4.318 21.988 21.988 0 0 1 .813-17.779 6.042 6.042 0 0 0 .356-.688c.144-.267.287-.534.443-.8a22.11 22.11 0 0 1 40.436 5.826 6 6 0 0 0 11.628-2.964 34.164 34.164 0 0 0 -4.7-10.571 114.035 114.035 0 0 0 26.393-17.6 239.617 239.617 0 0 1 26.068 61.415 161.905 161.905 0 0 1 -23.047 19.014 6 6 0 1 0 6.745 9.924 173.757 173.757 0 0 0 19.531-15.452 239.187 239.187 0 0 1 4.941 57.681z" fill="url(#linear-gradient-15)"/></svg>