<svg xmlns="http://www.w3.org/2000/svg" xmlns:xlink="http://www.w3.org/1999/xlink" width="340" height="162" viewBox="0 0 340 162">
  <defs>
    <clipPath id="clip-path">
      <rect id="Mask" width="340" height="162" rx="14" fill="#7165e3"/>
    </clipPath>
    <clipPath id="clip-path-2">
      <path id="Clip_2" data-name="Clip 2" d="M0,0H469V541.394H0Z" fill="none"/>
    </clipPath>
    <clipPath id="clip-path-3">
      <path id="Clip_38" data-name="Clip 38" d="M0,0H71.413V19.736H0Z" fill="none"/>
    </clipPath>
    <clipPath id="clip-path-4">
      <path id="Clip_61" data-name="Clip 61" d="M0,0H47.545V98.679H0Z" fill="none"/>
    </clipPath>
    <clipPath id="clip-path-5">
      <path id="Clip_74" data-name="Clip 74" d="M0,0H13.238V29.653H0Z" fill="none"/>
    </clipPath>
    <clipPath id="clip-path-6">
      <path id="Clip_93" data-name="Clip 93" d="M0,0H29.52V14.142H0Z" fill="none"/>
    </clipPath>
  </defs>
  <g id="youth" transform="translate(3020 -2003.5)">
    <g id="Charachter_add" data-name="Charachter add" transform="translate(-3020 2003.5)">
      <path id="Mask-2" data-name="Mask" d="M10,0H330a10,10,0,0,1,10,10V155H0V10A10,10,0,0,1,10,0Z" fill="#06f"/>
      <path id="Mask-3" data-name="Mask" d="M10,155H330a10,10,0,0,0,10-10V0H0V145A10,10,0,0,0,10,155Z" transform="translate(0 7)" fill="#06f"/>
      <g id="Charachter_add-2" data-name="Charachter add" clip-path="url(#clip-path)">
        <g id="Group_3" data-name="Group 3" transform="translate(-234 -181.858)">
          <path id="Clip_2-2" data-name="Clip 2" d="M0,0H469V541.394H0Z" fill="none"/>
          <g id="Group_3-2" data-name="Group 3" clip-path="url(#clip-path-2)">
            <path id="Fill_1" data-name="Fill 1" d="M309.529,541.389a51.661,51.661,0,0,1-5.71-9.9,61.11,61.11,0,0,1-3.778-11.921c4.283,5.292,7.387,12.428,9.49,21.818Zm-41.976-21.777h0a2.573,2.573,0,0,1-2.638-1.887,14.767,14.767,0,0,1-.511-4.151c-.066-1.919-.135-3.9-.968-5.039a6.152,6.152,0,0,0-.7-.042c-2.331,0-3.244,1.547-4.126,3.042s-1.8,3.043-4.125,3.043c-.156,0-.32-.007-.488-.021-1.932-1.138-2.422-3.863-2.9-6.5-.37-2.06-.753-4.19-1.822-5.548a13.927,13.927,0,0,1-3.387.43c-4.325,0-7.924-2.176-11.405-4.28a41.027,41.027,0,0,0-5.974-3.177c-.186-.923-.388-1.84-.584-2.727a63.062,63.062,0,0,1-1.3-7.308,12.848,12.848,0,0,0-7.262-1.977,16.248,16.248,0,0,0-6.44,1.292,8.181,8.181,0,0,0-4.229,3.7,4.127,4.127,0,0,1,.757-4.479,21.057,21.057,0,0,1,4.174-3.572,19.245,19.245,0,0,0,3.563-2.989c-.255-5.5-2.433-9.048-4.539-12.484-.7-1.146-1.429-2.331-2.074-3.571-.668-.066-1.418-.1-2.293-.1-1.117,0-2.3.053-3.449.1h-.023c-1.154.052-2.346.106-3.476.106-2.792,0-4.6-.346-5.858-1.121.15-1.113-.157-1.768-.938-2a6.069,6.069,0,0,1,3.117-4.21,20.2,20.2,0,0,1,5.374-1.814c5.354-3.482,9.816-12.537,10.609-21.532.629-7.131-1.127-13.027-4.944-16.6-2.093,4.7-4.82,6.883-8.578,6.883-3.062,0-6.495-1.431-10.129-2.946-1.587-.661-3.225-1.344-4.889-1.932a21.214,21.214,0,0,1-2.8-5.069,23.763,23.763,0,0,1-1.42-5.576,20.586,20.586,0,0,1,1.255-10.6,12.132,12.132,0,0,1,3.354-4.634,9.867,9.867,0,0,1,5.277-2.215,14.134,14.134,0,0,1,1.575-.093,8.134,8.134,0,0,1,6.749,3.08,27.2,27.2,0,0,1,3.642,7.072,34.279,34.279,0,0,0,4.08,8,27.973,27.973,0,0,0,2.6-10.16,67.445,67.445,0,0,0-.094-13.444,56.421,56.421,0,0,0-2.763-12.933c-1.46-4.076-3.279-6.978-5.407-8.628-.074,0-.148-.006-.22-.006-1.611,0-2.212,1.1-2.793,2.17s-1.182,2.173-2.793,2.173a5.724,5.724,0,0,1-1.74-.318,20.126,20.126,0,0,0-.644-7.093,12,12,0,0,0-2.706-4.814,14.144,14.144,0,0,0-6.69-3.8,31.024,31.024,0,0,0-8.329-.976,78.911,78.911,0,0,0-9.007.626,4.785,4.785,0,0,1,1.879-3.2,4.625,4.625,0,0,0,1.9-3.82c-.159-3.349-2.2-4.749-4.174-6.1a15.3,15.3,0,0,1-2.438-1.927,29.406,29.406,0,0,0-4.809,2.382A26.227,26.227,0,0,1,153,338.925a111.123,111.123,0,0,1-3.72,19.044c-1.9,6.048-4.383,10.324-7.6,13.072,1.118-4.485,2.341-8.954,3.523-13.276,2.513-9.185,5.111-18.68,6.859-28.877-3.457-2.109-5.689-5.615-7.849-9.005a33.462,33.462,0,0,0-5.928-7.6,13.737,13.737,0,0,0-4.18-2.507,15.808,15.808,0,0,0-5.639-.955,29.712,29.712,0,0,1-3.822,8.731,32.413,32.413,0,0,1-5.784,6.646c-4.257,3.784-9.283,6.636-14.937,9.71a11.442,11.442,0,0,0-6.428-1.926,8.422,8.422,0,0,0-3.487.683,4.646,4.646,0,0,0-2.352,2.248,54.3,54.3,0,0,0-8.939-8.637c-4.51-3.732-9.174-7.591-11.825-13.442A94.438,94.438,0,0,0,69,295.774a42.066,42.066,0,0,1,5.022-10.217,36.415,36.415,0,0,1,7.247-7.852,40.611,40.611,0,0,1,9.372-5.592,55.241,55.241,0,0,1,11.4-3.437c1.712.015,2.248,1.313,2.767,2.569.425,1.03.865,2.095,1.951,2.447a11.45,11.45,0,0,1,2.113-.18,27.037,27.037,0,0,1,3.555.3l.3.041a21.828,21.828,0,0,0,2.69.258,2.788,2.788,0,0,0,1.72-.417A32.252,32.252,0,0,0,120.16,257.7a76.675,76.675,0,0,0-3.022-16.128c-7.427-6.729-20.37-7.446-31.79-8.079-4.2-.233-8.164-.452-11.62-.95a.589.589,0,0,0-.48.211c-.212.3-.05.871.137,1.536.322,1.144.722,2.566-.6,3.27a22.655,22.655,0,0,1-7.553,2c-.786.672-.866,2.118-.944,3.516s-.158,2.843-.944,3.511c-3.193.74-6.478,1.193-9.655,1.631-3.3.455-6.705.925-9.99,1.714a36.05,36.05,0,0,0-9.61,3.684c-.773-4.68-3.875-7-6.611-9.038-.082,0-.165-.007-.246-.007a4.256,4.256,0,0,0-2.687,1.057,4.249,4.249,0,0,1-2.686,1.059,5.247,5.247,0,0,1-.985-.1c-2.56-7.168-9.306-14.315-14.158-19.067a14.278,14.278,0,0,0,.487-8.982,10.909,10.909,0,0,0-4.264-6.072c2.978-5.577,5.113-12.2,7.178-18.607,1.016-3.15,2.065-6.405,3.2-9.494-.686-1.885-2.921-2.169-5.082-2.444a11.721,11.721,0,0,1-3.562-.815,2.989,2.989,0,0,1-1.734-2.757,11.057,11.057,0,0,1,4.164-.891c2.911,0,5.19,1.472,7.6,3.03a29.737,29.737,0,0,0,5.219,2.877c2.1-.8,3.466-2.415,4.79-3.982a16.816,16.816,0,0,1,3.117-3.094,7.976,7.976,0,0,1,4.706-1.407,14.757,14.757,0,0,1,3.436.455,4.952,4.952,0,0,0,1.841-2.894,8.412,8.412,0,0,1,.989-2.128,12.771,12.771,0,0,0,5.657,1.168c.506,0,1.011-.017,1.417-.031l.055,0c.443-.015.86-.029,1.265-.029a5.515,5.515,0,0,1,3.327.82,7.422,7.422,0,0,1,2.438,4.1,5.024,5.024,0,0,0,1.253.181c1.576,0,2.157-1.089,2.718-2.141s1.142-2.144,2.722-2.144a4.5,4.5,0,0,1,.853.089,18.239,18.239,0,0,0,4.422,10.858,27.054,27.054,0,0,0,8.8,6.207,13.06,13.06,0,0,0,1.427,8.009,19.377,19.377,0,0,0,5.175,6.042,4.79,4.79,0,0,1-.989,3.117,4.78,4.78,0,0,0-.9,3.9,3.014,3.014,0,0,0,.922,1.4,2.845,2.845,0,0,1,.966,1.613,25.291,25.291,0,0,1,4.575-.432c5.738,0,10.188,2.142,14.114,4.031l.335.161c4.132,1.99,8.034,3.87,12.928,3.87a20.186,20.186,0,0,0,4.855-.607c-.6-1.214-1.9-1.706-3.169-2.181a7.049,7.049,0,0,1-2.644-1.438,3.808,3.808,0,0,1-.792-3.4,13.073,13.073,0,0,1,2.324-.223,11.456,11.456,0,0,1,6.338,2.134,12.1,12.1,0,0,0,5.5,2.1c4.472-8.918,11.261-15.4,17.932-21.074-6.23-5.052-14.493-8.134-22.485-11.115a121.708,121.708,0,0,1-16.216-6.948c4.666,1.6,10.208,3.434,15.948,4.842a69.049,69.049,0,0,0,16.326,2.285,33.65,33.65,0,0,0,8.244-.941,21.708,21.708,0,0,0,7.106-3.167,19.7,19.7,0,0,0,5.52-5.906,28.883,28.883,0,0,0,3.489-9.158,39.574,39.574,0,0,1,5.961-2.968,26.052,26.052,0,0,0,6.179-3.3,7.647,7.647,0,0,0,2.963-5.782c.232-3.595-1.988-5.628-4.8-8.2a36.894,36.894,0,0,1-4.642-4.841c-1.838-2.41-3.613-6.247-5.329-9.957a80.486,80.486,0,0,0-4.106-8.112,25.11,25.11,0,0,0-2.406-3.167c-1.912-2.24-3.423-4.009-3.258-8.873a14.273,14.273,0,0,1,5.307,4.85,49.388,49.388,0,0,1,3.626,6.638c1.687,3.5,3.431,7.113,6.166,9.584,4.253.973,6.688,3.975,9.043,6.877a24.681,24.681,0,0,0,5.115,5.168,14.79,14.79,0,0,1,6.39-1.422,32.09,32.09,0,0,1,5.737.683l.015,0a32.222,32.222,0,0,0,5.784.686,15.344,15.344,0,0,0,7.557-1.957,13.085,13.085,0,0,0-1.058-5.557,12.572,12.572,0,0,1-.828-7.491,116.085,116.085,0,0,0,13.642,6.065,44.428,44.428,0,0,0,14.553,3.011,17,17,0,0,0,8.615-2.049,12.49,12.49,0,0,0-.945-6.526,12.475,12.475,0,0,1-.943-6.524,4.953,4.953,0,0,0,2.832-3.011h.1a4.172,4.172,0,0,1,3.657,1.641,11.756,11.756,0,0,1,1.525,3.765,17.621,17.621,0,0,0,1.324,3.629c1.05,1.931,2.192,3.809,3.3,5.625a76.266,76.266,0,0,1,5.86,10.975,43.187,43.187,0,0,1,3.114,14.513,54.284,54.284,0,0,0,8.358,6.718,40.191,40.191,0,0,1,8.636,7.333,16.5,16.5,0,0,0,7.842-5.443,51.823,51.823,0,0,0,5.232-8.219,53.773,53.773,0,0,1,5.027-7.971,16.823,16.823,0,0,1,7.38-5.467,5.724,5.724,0,0,1,.64,5.275,7.648,7.648,0,0,1-2.229,3.043,8.578,8.578,0,0,1-3.132,1.717c-1.21,3.815-2.724,7.392-4.187,10.852-1.512,3.575-3.075,7.27-4.306,11.23a32.564,32.564,0,0,0,9.708,1.246c5.881,0,12.382-.933,19.264-1.922l.425-.061c6.474-.929,13.811-1.982,20.458-1.982a39.9,39.9,0,0,1,12.219,1.635,21.255,21.255,0,0,1,9.66,6.1c2.247-3.013,1.021-6.248-.277-9.674a18.884,18.884,0,0,1-1.615-6.381c-.029-6.7,3.535-11.624,6.981-16.383a40.993,40.993,0,0,0,5.292-8.708,15.925,15.925,0,0,0,3.222.365,7.57,7.57,0,0,0,5.319-1.846A10.975,10.975,0,0,0,383.3,137.2a7.894,7.894,0,0,0,4.432,1.309,7.885,7.885,0,0,1,5.007,1.7c.964-.6,1.721-1.11,2.329-1.523,1.432-.973,2.151-1.461,3.225-1.461a13.418,13.418,0,0,1,3.883.979v4.016a12.828,12.828,0,0,1,7.141,4.284,38.463,38.463,0,0,1,4.537,7.054c1.742,3.19,3.543,6.489,6.257,8.729a6.94,6.94,0,0,1-1.9,4.927,7.21,7.21,0,0,0-1.879,4.111,16.676,16.676,0,0,1,1.1,7.317,15.111,15.111,0,0,1-1.92,6.066c-2.05,3.708-5.406,6.827-8.652,9.844a50.3,50.3,0,0,0-6.564,6.879c-1.007-.219-1.95-.481-2.861-.735a17.916,17.916,0,0,0-4.612-.891,5.669,5.669,0,0,0-4.8,2.63c-.428-.4-.855-.821-1.268-1.224-2.474-2.414-4.81-4.694-7.578-4.694a6.732,6.732,0,0,0-4.368,1.9,11.234,11.234,0,0,0-6.611-2.5c-3.043,0-5.981,1.644-8.981,5.025a65.275,65.275,0,0,0-6.735,9.9c-.781,1.316-1.519,2.558-2.214,3.633a5.811,5.811,0,0,0,2.357,3.692,17.582,17.582,0,0,0,3.978,1.97c2.4.95,4.88,1.933,5.938,4.367a20.916,20.916,0,0,1-4.633,5.391,17.443,17.443,0,0,0-3.918,4.5,11.022,11.022,0,0,0-.89,7.172,22.366,22.366,0,0,1-4.564,2.364,17.55,17.55,0,0,0-5.466,3.127,8.082,8.082,0,0,0-2.241,6.558,5.137,5.137,0,0,0,3.312,2.082,22.873,22.873,0,0,0,4.505.377c3.887.077,7.905.156,9.174,4.564a26.471,26.471,0,0,1-7.154,1.738c-2.807.412-5.457.8-7.308,2.179-2.07,1.542-2.873,4.123-2.529,8.122a11.685,11.685,0,0,0,2.132,5.855,17.758,17.758,0,0,0,4.687,4.42c3.795,2.578,8.638,4.484,13.766,6.5,12.5,4.918,25.42,10,21.887,25.375a28.125,28.125,0,0,1-9.9,1.795,36.164,36.164,0,0,1-10.061-1.567c-3.266-.941-6.532-2.223-9.691-3.463l-.207-.081c-6.4-2.512-13.026-5.11-20.409-5.11a30.771,30.771,0,0,0-9.194,1.4c-1.592,2.694-4.031,4.56-6.389,6.365a34.044,34.044,0,0,0-4.651,4.027,13.284,13.284,0,0,0-3.115,5.661,2.723,2.723,0,0,0,1.476.552c1.17,0,1.8-1.291,2.531-2.786.092-.189.187-.384.284-.576.817-1.626,1.865-3.361,3.98-3.361a4.846,4.846,0,0,1,1.168.154,26.767,26.767,0,0,0,.292,9.913,5.438,5.438,0,0,0-2.289-1.627,5.065,5.065,0,0,0-1.516,5.085,9,9,0,0,0,3.253,4.324,14.26,14.26,0,0,0,4.9,2.494,20.577,20.577,0,0,1-1.633-4.113c3.3,4.847,8.5,7.742,13.538,10.541,4.942,2.749,9.61,5.345,11.765,9.508-4.359-3.222-9.256-5.257-13.991-7.224a76.6,76.6,0,0,1-10.93-5.234,28.552,28.552,0,0,1-9.06-8.613,15.169,15.169,0,0,1-2,.142,7.061,7.061,0,0,1-5.553-2.15,1.792,1.792,0,0,0-.774.483,1.536,1.536,0,0,1-1.109.521,24.283,24.283,0,0,0-2.844,11.091,66.121,66.121,0,0,0,.938,11.078,74.745,74.745,0,0,1,.957,9.945c-3.363,2.092-8.207,2.7-12.892,3.3-4.992.631-10.154,1.283-13.537,3.727a4.627,4.627,0,0,0,.986,3.115,5.431,5.431,0,0,1,.9,1.9c.211.02.422.03.626.03,2.3,0,3.4-1.309,4.466-2.575a6.071,6.071,0,0,1,3.4-2.472,20.592,20.592,0,0,0,11.006,4.042,6.392,6.392,0,0,0,3.1-.682,4.132,4.132,0,0,0,1.94-2.356,1.352,1.352,0,0,1,1.024,1.426,4.7,4.7,0,0,1-.7,2.248,2.992,2.992,0,0,1-1.264,1.345c.716,1.546,2.343,2.163,3.916,2.759a7.178,7.178,0,0,1,3.636,2.26c-.316,4.47.85,7.661,3.566,9.754,2.573,1.983,6.318,2.778,9.642,3.293-.326,4.319.656,7.541,3,9.851,2.178,2.143,5.288,3.283,8.325,4.2a41.851,41.851,0,0,1-.8,5.814,21.763,21.763,0,0,0-.142,9.241,7.518,7.518,0,0,0,3.783,1.031,10.556,10.556,0,0,1,3.151.644,2.54,2.54,0,0,1,1.557,2.337c.157,2.69-1.613,3.373-3.324,4.033-1.467.566-2.984,1.151-3.284,3a15.863,15.863,0,0,0,1.963,7.747,18.605,18.605,0,0,1,1.816,5.294,22.753,22.753,0,0,1-2.079,2.541,15.6,15.6,0,0,0-2.922,4.054,11.483,11.483,0,0,0-.662,6.455c.822,2.374,3.408,2.927,5.908,3.463a12.174,12.174,0,0,1,4.471,1.553,22.355,22.355,0,0,0,2.612-2.205c2.018-1.889,4.1-3.841,7.958-3.841.245,0,.5.008.754.024,1.514,2.945-.36,4.368-2.344,5.873a11.732,11.732,0,0,0-2.373,2.16c1.078,2.53,3.747,3.431,6.328,4.3a18.828,18.828,0,0,1,4.054,1.722,10.368,10.368,0,0,1-1.313.082c-2.638,0-5.42-.947-8.365-1.95l-.04-.013-.9-.306a34.6,34.6,0,0,0-11.3-2.268,23.774,23.774,0,0,0-4.5.433c-2.987,3.317-5.238,7.526-7.414,11.6-2.332,4.362-4.744,8.872-8.068,12.295a20.129,20.129,0,0,1-5.819,4.249,21.178,21.178,0,0,1-7.961,1.97c-1.255,2.449-.889,4.585-.465,7.058a26.042,26.042,0,0,1,.465,3.985,8.021,8.021,0,0,1-1.789.223,6,6,0,0,1-3.931-1.619,6.1,6.1,0,0,0-3.717-1.616,1.511,1.511,0,0,0-1.039.74c-.232.539.113,1.234.477,1.969a3.331,3.331,0,0,1,.562,2.31,4.936,4.936,0,0,1-1.846-2.9,8.364,8.364,0,0,0-.987-2.123c-.267.006-.531.009-.785.009a51.3,51.3,0,0,1-6.315-.476l-.158-.019a47.194,47.194,0,0,0-5.8-.458,24.4,24.4,0,0,0-6.764.944c-1.157,1.129-1.478,3.184-1.789,5.172-.394,2.526-.8,5.138-2.932,5.867A5.063,5.063,0,0,1,267.553,519.612ZM257.019,373.382a8.394,8.394,0,0,0-2.544.373,7.084,7.084,0,0,0,2.134,3.974,5.9,5.9,0,0,0,3.956,1.766,4.25,4.25,0,0,0,2.454-.779,4.6,4.6,0,0,0-1.148-3.586A6.632,6.632,0,0,0,257.019,373.382Zm96.03,142.262a21.618,21.618,0,0,1-6.882-1.108c-2.808-1.042-4.276-2.684-4.362-4.882.831.192,1.7.361,2.542.525a28.478,28.478,0,0,1,5.964,1.6,6.65,6.65,0,0,1,3.834,3.825C353.826,515.632,353.447,515.645,353.049,515.645Zm-342.5-1.306h0a11.988,11.988,0,0,1-3.818-.715c-.061-2.795-1.718-4.733-3.32-6.607-1.9-2.218-3.857-4.511-3.326-8.273a8.949,8.949,0,0,1,2.946-5.127,8.275,8.275,0,0,1,5.359-2.36c1.487,0,3.558.61,4.982,3.518.387-.262.764-.545,1.13-.819a8.815,8.815,0,0,1,5.71-2.3,10.815,10.815,0,0,1,1.7.144,11.6,11.6,0,0,0,.952,1.985,11.524,11.524,0,0,1,.95,1.982c-1.818,1.988-2.953,5.1-4.051,8.113a31.411,31.411,0,0,1-3.3,7.189A8.105,8.105,0,0,1,14,513.438,6.588,6.588,0,0,1,10.554,514.338ZM93.81,507.15h0a11.671,11.671,0,0,1-5.769-1.428,23.034,23.034,0,0,1-4.128-3.139c-.7-.624-1.428-1.269-2.19-1.855-4.592.314-7.762,2.2-10.828,4.028-1.1.653-2.229,1.328-3.414,1.922a10.477,10.477,0,0,1,1.059-4.394,9.9,9.9,0,0,0,.837-6.517,5.614,5.614,0,0,0-2.515-3.123,9.017,9.017,0,0,0-4.533-1.016,19.127,19.127,0,0,0-2.441.169c-.346-.582-.662-1.21-.969-1.818a13.66,13.66,0,0,0-2.245-3.526,5.456,5.456,0,0,0-4.086-1.6c-.1,0-.2,0-.3.005-1.121-9.916-3.419-18.148-6.646-23.807a17.647,17.647,0,0,1,2.022-5.825c1.377-2.788,2.8-5.671,1.779-11.037-.521-1.934-2.146-2.752-3.718-3.542a9.407,9.407,0,0,1-2.771-1.823,4.6,4.6,0,0,1-1.106-3.565c.715.05,1.433.075,2.134.075a21.62,21.62,0,0,0,13.845-4.478,20.809,20.809,0,0,0,4.691-5.324,27.273,27.273,0,0,0,3.06-7.139,9.609,9.609,0,0,0,4.056,1.011c2.639,0,4.509-1.465,6.317-2.882l.057-.045c1.78-1.4,3.621-2.838,6.1-2.838a8.452,8.452,0,0,1,3.4.788c1.795-.262,2.569-1.622,3.318-2.937a8.5,8.5,0,0,1,1.426-2.025,20.7,20.7,0,0,1,3.4,2.531c2.176,1.866,4.425,3.8,8.454,3.8a16.484,16.484,0,0,0,3.335-.373c.477.671.914,1.4,1.336,2.11,1.131,1.894,2.3,3.853,4.358,4.835a5.592,5.592,0,0,0,1.5.233,3.7,3.7,0,0,0,2.588-1.156,3.7,3.7,0,0,1,2.59-1.157,4.924,4.924,0,0,1,.913.093c.472,1.145.853,2.411,1.221,3.636a26.414,26.414,0,0,0,1.872,5.011,6.6,6.6,0,0,0,3.548,3.256c.117.008.234.012.346.012a4.382,4.382,0,0,0,3.208-1.527,4.385,4.385,0,0,1,3.206-1.526,5.649,5.649,0,0,1,.839.067,21,21,0,0,0-3.405,10.418,17.856,17.856,0,0,0,2.2,9.333,18.977,18.977,0,0,0,7.19,7.245,21.523,21.523,0,0,0,10.725,2.785,25.483,25.483,0,0,0,7.017-1.015c-1.788,1.539-4.42,2.256-8.283,2.256-2.051,0-4.191-.2-6.387-.422l-.379-.038c-1.942-.2-3.776-.384-5.325-.384a7.353,7.353,0,0,0-3.357.574,8.3,8.3,0,0,0-2.822,5.3,34.785,34.785,0,0,0-.2,6.774c.129,3.9.262,7.935-1.721,10.737.007,2.14,1.209,3.069,2.371,3.968s2.365,1.828,2.375,3.969a2.306,2.306,0,0,1-1.06.274c-1.1,0-2.036-.918-3.025-1.891l-.038-.038-.23-.226c-1.117-1.089-2.346-2.153-3.988-2.153a5.655,5.655,0,0,0-3.052,1.057,19.5,19.5,0,0,1,0,10.912,5.507,5.507,0,0,1-1.034.107c-1.709,0-2.452-1.037-3.171-2.041s-1.463-2.041-3.171-2.041c-.07,0-.142,0-.216.005a3.4,3.4,0,0,0-3.175,2.381,13.453,13.453,0,0,0-.36,4.418c.05,2.2.1,4.284-1.212,5.1-2.375-.005-3.272-1.6-4.139-3.135a5.87,5.87,0,0,0-2.5-2.815,7.351,7.351,0,0,0-4.747,5.95A19.31,19.31,0,0,1,93.81,507.15Zm83.78-37.175h0c-7.932-.839-14.761-1.813-20.877-2.976a34.143,34.143,0,0,1,8.336-.947,29.358,29.358,0,0,1,7.572.878c2.469.678,4.142,1.7,4.97,3.044Zm-18.984-10.911v0a1.343,1.343,0,0,1,.253-1.2c1.284-1.624,6.445-1.832,10.8-1.832,1.154,0,2.3.016,3.307.031h.014c.627.009,1.219.017,1.763.021a3.939,3.939,0,0,1-2.636,2.227,13.861,13.861,0,0,1-4.273.528c-1.157,0-2.342-.068-3.556-.144l-.218-.014c-1.067-.067-2.074-.13-2.933-.13a3.945,3.945,0,0,0-2.517.508Zm198.165-27.692h0c-2.938,0-5.979-.491-8.32-4.05a52.932,52.932,0,0,1,10.27-1.107c4.739,0,10.756.88,12.508,5.074a31.239,31.239,0,0,0-5.107-.394c-1.717,0-3.334.113-4.977.239l-.3.023C359.4,431.268,358.041,431.372,356.771,431.372ZM171.9,396.568h0c2.8-5.855,12.383-12.94,19.931-17.853-3.46,5.848-8.913,9.77-14.187,13.563C175.73,393.652,173.753,395.074,171.9,396.568Zm150.232-62.643a18.443,18.443,0,0,1-2.715-6.158A16.42,16.42,0,0,1,322,333.488l.026.083.11.353ZM462.947,263.6h0a5.313,5.313,0,0,1-4.388-1.933,5.261,5.261,0,0,1,1.545-3.873,6.477,6.477,0,0,1,4.542-1.918A4.5,4.5,0,0,1,469,258.69a4.436,4.436,0,0,1-1.929,3.632A7.117,7.117,0,0,1,462.947,263.6Zm-375.6-82.792h0a18.8,18.8,0,0,1-6.854-1.123c-2.26-.938-3.443-2.392-3.517-4.321a74.225,74.225,0,0,1,7.255,2.4,68.936,68.936,0,0,0,7.929,2.564A21.718,21.718,0,0,1,87.348,180.808Zm314.725-47.113h0a15.447,15.447,0,0,1-7.112-1.974c.122-4.923,1.551-8.784,4.369-11.8,2.225-2.385,5.269-4.251,9.869-6.052-3.1-1.031-5.048-3.335-6.932-5.563-1.765-2.087-3.59-4.244-6.357-5.352-.362-1.308-.663-2.708-.955-4.062a36.231,36.231,0,0,0-2.064-7.217,8.05,8.05,0,0,0-4.572-4.591c.02-2.007,1.255-2.779,2.45-3.526a4.519,4.519,0,0,0,2.3-2.427,2,2,0,0,0-.951-2.477,2,2,0,0,1-.948-2.481,4.8,4.8,0,0,1,3.309-1c.157,0,.321,0,.486.012a10.353,10.353,0,0,1,1.479-6.35,18,18,0,0,1,3.8-3.924c2.256-1.9,4.588-3.857,5.164-7.58a12,12,0,0,0,4.3.882,6.365,6.365,0,0,0,6.144-3.859,7.288,7.288,0,0,0,4.215,2.8,22.983,22.983,0,0,0,5.179.509,21.558,21.558,0,0,1,5.792.657,18.781,18.781,0,0,1,5.916,3.51c2.271,1.765,4.415,3.432,7.373,3.435a5.544,5.544,0,0,1,.4,4.132,16.864,16.864,0,0,0-.4,2.813c.25.789.98,1.141,2.365,1.141.629,0,1.334-.071,2.017-.14s1.389-.141,2.017-.141a4.7,4.7,0,0,1,1.191.126c.026,2.215-1.287,3.066-2.557,3.89a5.577,5.577,0,0,0-2.186,2.066,19.164,19.164,0,0,1,1.892,6.893,18.536,18.536,0,0,1-.645,6.279c-1.087,4.024-3.328,7.821-5.5,11.493a67.633,67.633,0,0,0-4.29,8.069,17.962,17.962,0,0,0-4.529-.617,15.2,15.2,0,0,0-9.577,3.5,46.2,46.2,0,0,0-7.267,7.711l-.474.592-.061.076a50.779,50.779,0,0,1-6.607,7.291,15.072,15.072,0,0,1-3.736,2.366A10.729,10.729,0,0,1,402.072,133.695ZM232.646,76.166h0c-3.206-1.455-6.413-2.76-10.386-2.76a23.363,23.363,0,0,0-5.75.78c-3.525-2.63-7.3-5.2-11.257-5.2a8.705,8.705,0,0,0-2.032.239c.772-1.77.921-3.1.456-4.064-.676-1.4-2.525-1.9-4.666-2.469-.488-.13-.989-.264-1.487-.413a13.062,13.062,0,0,0-.554-5.8,19.423,19.423,0,0,0-2.209-4.144,21.562,21.562,0,0,1-2.93-5.929,27.808,27.808,0,0,0,4.188-6.862c1.238-3.311.789-6.008-1.337-8.018,6.863-3.627,11.52-8.493,14.236-14.877a12.437,12.437,0,0,0,4.5.9,7.728,7.728,0,0,0,4.346-1.212,6.244,6.244,0,0,0,2.546-3.656c.087,0,.167-.006.239-.006,1.695,0,2.429,1.033,3.139,2.033A4.09,4.09,0,0,0,226,16.652a4.312,4.312,0,0,0,3.156-1.168,6.952,6.952,0,0,0,1.589-2.8c3.039,1.8,5.36,4.436,7.6,6.984a44.9,44.9,0,0,0,5.288,5.363,17.281,17.281,0,0,0,7.046,3.522c-2.075,5.105-.889,8.589.367,12.278,1.037,3.045,2.108,6.193,1.529,10.54a5.635,5.635,0,0,0-3.754,2.757c-.98,1.806-1,4.349-.047,7.159-1.453,1-3.034,1.911-4.563,2.791a40.472,40.472,0,0,0-7.044,4.731,14.5,14.5,0,0,0-4.524,7.357ZM363.038,34.182a13.7,13.7,0,0,1-4.147-.666c.145-1.1-.166-1.754-.952-1.988a12.872,12.872,0,0,1,2.007-4.611,14.593,14.593,0,0,1,3.5-3.542,16.321,16.321,0,0,1,9.472-3.075,14.8,14.8,0,0,1,3.061.317,15.072,15.072,0,0,1-3.987,9.682,12.275,12.275,0,0,1-8.95,3.881h0ZM199.321,6.255a6.749,6.749,0,0,1-1.558-.239l-.038-.009-.212-.049a10.267,10.267,0,0,0-2.429-.3,12.183,12.183,0,0,0-1.36.08c-1.176-1.933-.921-3.233-.5-3.983A4.014,4.014,0,0,1,196.811,0a4.809,4.809,0,0,1,3.724,1.624,4.805,4.805,0,0,1,.785,4.118A4.6,4.6,0,0,1,199.321,6.255Z" transform="translate(0.001 0)" fill="rgba(25,22,52,0.18)"/>
          </g>
        </g>
        <g id="Group_133" data-name="Group 133" transform="translate(12 18.813)">
          <path id="Fill_1-2" data-name="Fill 1" d="M68.16,43.934c.049,3.05-3.211,7.2-7.836,11.439q-.468.428-.956.86A121.917,121.917,0,0,1,42.106,68.663C36.681,71.9,29.12,75.552,21.968,76.524c-6.758.915-13.156-.568-17.044-7.059A23.266,23.266,0,0,1,3.692,67.11c-6.329-13.864-2.6-37.293-2.6-37.293L17.148,0c11.386,10.7,8.465,38.413,12.628,41.608.071.054.143.106.218.153a3.923,3.923,0,0,0,1.834.579c4.569.391,12.617-4.579,20.709-6.8q.654-.177,1.309-.334c.413-.1.823-.184,1.234-.263,7.22-1.4,12.976,2.473,13.08,9" transform="translate(67.19 60.286)" fill="#fefefe"/>
          <path id="Fill_3" data-name="Fill 3" d="M7.819,20.172q-.468.428-.956.86A23.137,23.137,0,0,1,.413,7.588,38.166,38.166,0,0,1,.032.335C.468.216.905.1,1.34,0a36.781,36.781,0,0,0,.345,7.414c.836,5.406,2.891,9.671,6.134,12.757" transform="translate(119.695 95.488)" fill="#abc0fe"/>
          <path id="Fill_5" data-name="Fill 5" d="M10.077.579C7.125,2.646,3.08,5.906,1.2,9.352A.634.634,0,0,1,.64,9.69.629.629,0,0,1,.324,9.6a.688.688,0,0,1-.24-.916A25.83,25.83,0,0,1,6.467,1.631,37.553,37.553,0,0,0,1.059,3.224a.623.623,0,0,1-.226.043.645.645,0,0,1-.6-.434.683.683,0,0,1,.377-.864A34.239,34.239,0,0,1,8.243,0a3.927,3.927,0,0,0,1.834.579" transform="translate(88.941 102.046)" fill="#abc0fe"/>
          <path id="Fill_7" data-name="Fill 7" d="M18.275,10.1c-6.758.915-13.154-.568-17.044-7.058A23.578,23.578,0,0,1,0,.685c2.336-.823,7.065-1.6,13.033,2.087,3.867,2.389,5.08,5.085,5.242,7.327" transform="translate(70.882 126.71)" fill="#d51247"/>
          <path id="Fill_9" data-name="Fill 9" d="M21.212,0S15.411,20.858,4.88,23.382L0,16.973S10.147,1.071,21.212,0" transform="translate(126.709 82.196)" fill="#acc1ff"/>
          <path id="Fill_11" data-name="Fill 11" d="M0,36.348l.81.484a1.093,1.093,0,0,0,1.316-.144C5.5,33.535,21.881,18.21,24.673,15.174a1.212,1.212,0,0,0,.288-1.061l-2.547-12.6a1.183,1.183,0,0,0-.483-.742L20.81,0l2.61,13.575Z" transform="translate(126.45 68.007)" fill="#121032"/>
          <path id="Fill_13" data-name="Fill 13" d="M2.922,36.2.024,23.743a2.191,2.191,0,0,1,.7-1.765L22.923.365c.5-.487,1-.487,1.111,0l2.9,12.463a2.2,2.2,0,0,1-.7,1.765L4.034,36.206c-.5.487-1,.487-1.112,0" transform="translate(123.457 67.966)" fill="#121032"/>
          <path id="Fill_15" data-name="Fill 15" d="M2.131,27.219.023,18.158a2.2,2.2,0,0,1,.7-1.766L17.185.366c.5-.488,1-.488,1.112,0L20.4,9.428a2.2,2.2,0,0,1-.7,1.766L3.242,27.219c-.5.488-1,.488-1.111,0" transform="translate(128.217 71.002)" fill="#2d4a94"/>
          <path id="Fill_17" data-name="Fill 17" d="M1.752,3.29c-.772.753-1.541.751-1.716,0A3.39,3.39,0,0,1,1.118.564c.773-.753,1.541-.753,1.716,0A3.4,3.4,0,0,1,1.752,3.29" transform="translate(125.638 93.927)" fill="#2d4a94"/>
          <path id="Fill_19" data-name="Fill 19" d="M.664,10.082s-2-4.773.944-7.125S10.653,0,10.653,0C13.025,1.952,9.02,4.2,3.972,6.5Z" transform="translate(127.548 76.294)" fill="#acc1ff"/>
          <path id="Fill_21" data-name="Fill 21" d="M0,8.722s3.086,1.459,4.1-.367S3.28,1.927,2.53.359.981,2.775,1.353,4.567a14.09,14.09,0,0,1,.14,2.744Z" transform="translate(138.018 87.109)" fill="#acc1ff"/>
          <path id="Fill_23" data-name="Fill 23" d="M0,10.679s3.25,1.4,4.454-.763S3.479,2.286,2.59.423s-1.982,2.907-1.4,5-.1,3.022-.1,3.022Z" transform="translate(142.175 80.633)" fill="#acc1ff"/>
          <path id="Fill_25" data-name="Fill 25" d="M0,9.433s2.871,1.24,3.935-.675S3.074,2.02,2.288.374.538,2.94,1.053,4.787A3.216,3.216,0,0,1,.962,7.456Z" transform="translate(144.437 79.64)" fill="#acc1ff"/>
          <path id="Fill_27" data-name="Fill 27" d="M0,10.678s3.249,1.4,4.453-.764S3.479,2.286,2.59.423s-1.982,2.906-1.4,5-.1,3.022-.1,3.022Z" transform="translate(139.931 83.952)" fill="#acc1ff"/>
          <path id="Fill_29" data-name="Fill 29" d="M43,25.447s6.552-13.916-7.364-21.638C25.9-1.592,7.1-2.581,1.367,9.785c-5.334,11.5,6.664,21.174,6.664,21.174S33.727,36.7,43,25.447" transform="translate(28.607 28.694)" fill="#5c84cd"/>
          <path id="Fill_31" data-name="Fill 31" d="M8.623,0S-3.407,1.713.952,8.417C3.26,11.965,16.294,13.9,16.294,13.9S18.848,1.612,8.623,0" transform="translate(40.33 38.033)" fill="#121032"/>
          <path id="Fill_33" data-name="Fill 33" d="M77.326,116.393s-44.559,15.64-63.761,7.832c0,0-6.018-1.958-8.434-14.281-.079-.4-.154-.816-.225-1.243-1.018-6.1-1.174-14.532.52-26.17C7.457,68.571,4.647,61.44,3.444,47.539c-.043-.49-.086-.988-.126-1.5-.129-1.5-.248-3.085-.368-4.768C1.657,22.922-3.932,15.077,4.816,9.627A127.581,127.581,0,0,1,25.04,0S34.8,3.238,41.682,0c0,0,10.468,5.361,18.516,8.427s5.4,25.291,7.939,38.052S74.972,69.4,78.854,90.568c3.55,19.363-1.528,25.825-1.528,25.825" transform="translate(22.003 48.414)" fill="#fefefe"/>
          <path id="Fill_35" data-name="Fill 35" d="M12.022,53.248a.656.656,0,0,1-.64-.622c-.373-5.34-4.256-18.891-6.578-26.988-.451-1.574-.842-2.934-1.122-3.947C2,15.624.086,1.366.006.762A.665.665,0,0,1,.553.007a.646.646,0,0,1,.724.571C1.3.725,3.255,15.344,4.914,21.317c.279,1.008.669,2.364,1.119,3.936,2.336,8.149,6.246,21.788,6.629,27.276a.661.661,0,0,1-.593.717l-.047,0" transform="translate(88.352 83.842)" fill="#abc0fe"/>
          <g id="Group_39" data-name="Group 39" transform="translate(30.816 158.346)">
            <path id="Clip_38-3" data-name="Clip 38" d="M0,0H71.413V19.736H0Z" transform="translate(0 0)" fill="none"/>
            <g id="Group_39-2" data-name="Group 39" transform="translate(0 0)" clip-path="url(#clip-path-3)">
              <path id="Fill_37" data-name="Fill 37" d="M70.761,0s1.9,6.093-.785,10.189c0,0-40.03,14.523-66.884,7.746,0,0-2.418-3.045-3.092-9.291,0,0,32.295,8.392,70.761-8.643" fill="#5c84cd"/>
            </g>
          </g>
          <path id="Fill_40" data-name="Fill 40" d="M18.882,7.694c7.421,0,9.744-6.95,9.768-7.023a.513.513,0,0,0-.306-.644.481.481,0,0,0-.615.319,9.383,9.383,0,0,1-9.592,6.308C10.552,6.158.807.92.709.868a.475.475,0,0,0-.655.216.521.521,0,0,0,.208.686c.405.219,10.022,5.389,17.814,5.9q.412.027.806.026" transform="translate(41.283 60.287)" fill="#abc0fe"/>
          <path id="Fill_42" data-name="Fill 42" d="M41.335.011S46.482,16.477,44.6,25.621c0,0-16.94,10.552-42.19,5.25,0,0-1.413-16.282-2.406-26.748,0,0,25.782-4.369,41.335-4.113" transform="translate(45.514 128.218)" fill="#5c84cd"/>
          <path id="Fill_44" data-name="Fill 44" d="M8.312,89.126a.372.372,0,0,0,.363-.364C10.23,53.593.818.839.723.31A.368.368,0,0,0,.3.006.381.381,0,0,0,.006.452C.1.979,9.5,53.647,7.948,88.728a.374.374,0,0,0,.346.4h.018" transform="translate(48.952 51.761)" fill="#fff"/>
          <path id="Fill_46" data-name="Fill 46" d="M15.506,86.891h.012a.374.374,0,0,0,.353-.392C14.648,44.026.85.693.71.26A.361.361,0,0,0,.248.02.387.387,0,0,0,.019.5c.138.432,13.9,43.663,15.124,86.018a.372.372,0,0,0,.363.37" transform="translate(64.241 51.627)" fill="#fff"/>
          <path id="Fill_48" data-name="Fill 48" d="M43.68,46.687C30.475,70.836.64,78.454.64,78.454A17,17,0,0,1,.722,68.72s27.6-5.364,39.162-29.493C49.288,19.6,44.817,0,44.817,0s4.06,0,6.123,2.153C50.94,2.153,53.562,28.615,43.68,46.687Z" transform="translate(26.788 52.491)" fill="#121032"/>
          <path id="Fill_50" data-name="Fill 50" d="M13.794,40.044c.172-.009.344-.022.516-.036a20.158,20.158,0,0,0,2.538-.377c.453-.093.9-.2,1.342-.328q1.006-.277,1.99-.657c.471-.176.937-.374,1.4-.584A28.408,28.408,0,0,0,35.954,22.4c.185-.494.357-.993.509-1.5a24.284,24.284,0,0,0,.678-2.736c.091-.463.164-.927.223-1.4a23.181,23.181,0,0,0,.191-2.513c0-.181.005-.361,0-.54C37.523,5.131,25.685,0,25.685,0L22.513,5.8l-.727,1.328L16.129,17.469,6.764,23.847l-1.211.823L0,28.453S5.59,40.506,13.794,40.044" transform="translate(40.958 80.973)" fill="#121032"/>
          <path id="Fill_52" data-name="Fill 52" d="M11.3,15.784c.453-.093.9-.2,1.342-.328C10.367,9,5.15,3.472,1.211,0L0,.823c3.811,3.33,9.034,8.745,11.3,14.961" transform="translate(46.511 104.82)" fill="#2d4a94"/>
          <path id="Fill_54" data-name="Fill 54" d="M4.835,6.6c3.613,3.341,7.157,5.274,10.52,5.764q.135-.695.223-1.4C9.528,10.1,3.947,4.151.727,0L0,1.328A46.354,46.354,0,0,0,4.835,6.6" transform="translate(62.744 86.772)" fill="#2d4a94"/>
          <path id="Fill_56" data-name="Fill 56" d="M25.738,0S35.2,5.18,29.759,13.811,14.919,33.029,9.151,33.652,0,28.514,0,28.514Z" transform="translate(40.903 80.972)" fill="#2d4a94"/>
          <path id="Fill_58" data-name="Fill 58" d="M0,17.742c.472-.176.937-.374,1.4-.584A16.779,16.779,0,0,1,5.232,6.842,15.983,15.983,0,0,1,15.774,1.5c.185-.493.357-.992.509-1.5A17.432,17.432,0,0,0,4.217,5.91,18.271,18.271,0,0,0,0,17.742" transform="translate(61.138 101.877)" fill="#2d4a94"/>
          <g id="Group_62" data-name="Group 62" transform="translate(0 59.773)">
            <path id="Clip_61-3" data-name="Clip 61" d="M0,0H47.545V98.679H0Z" transform="translate(0 0)" fill="none"/>
            <g id="Group_62-2" data-name="Group 62" transform="translate(0 0)" clip-path="url(#clip-path-4)">
              <path id="Fill_60" data-name="Fill 60" d="M47.545,97.919s-20.458,3.647-34.535-5.041C5.018,87.944-.917,79.035.117,63.225c.016-.239.032-.481.052-.722C3.484,19.823,24.56.513,24.56.513c7.893-2.143,16.67.059,4.5,54.385C25.483,76.939,45.82,78.744,45.82,78.744Z" transform="translate(0 0)" fill="#fefefe"/>
            </g>
          </g>
          <path id="Fill_63" data-name="Fill 63" d="M.642,41.974a.593.593,0,0,1-.2-.033A.676.676,0,0,1,.032,41.1c.082-.263,8.2-26.545,8.341-40.432A.642.642,0,1,1,9.656.677C9.514,14.769,1.334,41.244,1.251,41.511a.643.643,0,0,1-.609.463" transform="translate(28 77.734)" fill="#abc0fe"/>
          <path id="Fill_65" data-name="Fill 65" d="M.641,7.69a.621.621,0,0,1-.336-.1A.688.688,0,0,1,.1,6.667L3.843.318A.626.626,0,0,1,4.726.1a.69.69,0,0,1,.209.923L1.188,7.371a.635.635,0,0,1-.547.319" transform="translate(35.334 81.756)" fill="#abc0fe"/>
          <path id="Fill_67" data-name="Fill 67" d="M2.451,23.773a.643.643,0,0,1-.591-.408C-.491,17.6.045,1.336.069.646A.656.656,0,0,1,.733,0,.66.66,0,0,1,1.35.7C1.345.862.8,17.352,3.041,22.839a.682.682,0,0,1-.339.88.63.63,0,0,1-.251.053" transform="translate(40.757 135.35)" fill="#abc0fe"/>
          <path id="Fill_69" data-name="Fill 69" d="M20.824,1.312A36.93,36.93,0,0,1,10.348,2.745,36.107,36.107,0,0,1,.224,1.337Q.105.733,0,.094A.615.615,0,0,1,.5.025a37.654,37.654,0,0,0,19.945,0,.637.637,0,0,1,.8.445.674.674,0,0,1-.424.837" transform="translate(26.909 157.022)" fill="#abc0fe"/>
          <path id="Fill_71" data-name="Fill 71" d="M11.093,7.482c-.263,0-.531-.008-.809-.027C7.536,7.271,3.542,6.012.121,1.063A.692.692,0,0,1,.266.127a.624.624,0,0,1,.895.152C7.126,8.91,14.919,5.446,15,5.411a.631.631,0,0,1,.846.343.682.682,0,0,1-.328.883,11.371,11.371,0,0,1-4.422.846" transform="translate(30.667 129.213)" fill="#abc0fe"/>
          <g id="Group_75" data-name="Group 75" transform="translate(0 122.998)">
            <path id="Clip_74-3" data-name="Clip 74" d="M0,0H13.238V29.653H0Z" transform="translate(0 0)" fill="none"/>
            <g id="Group_75-2" data-name="Group 75" transform="translate(0 0)" clip-path="url(#clip-path-5)">
              <path id="Fill_73" data-name="Fill 73" d="M13.01,29.653C5.018,24.719-.917,15.81.117,0,5.742,6.5,14.791,18.9,13.01,29.653" transform="translate(0)" fill="#5c84cd"/>
            </g>
          </g>
          <path id="Fill_76" data-name="Fill 76" d="M17.668,11.495v4.659a13.8,13.8,0,0,1-1.578,1.155C8.35,22.167,0,16.154,0,16.154V0L15.561,10.123Z" transform="translate(45.075 34.755)" fill="#adc3ff"/>
          <path id="Fill_78" data-name="Fill 78" d="M12.966,4.006V8.8a13.8,13.8,0,0,1-1.578,1.155C4.8,7.228,0,0,0,0L10.859,2.77Z" transform="translate(49.777 42.11)" fill="#121032"/>
          <path id="Fill_80" data-name="Fill 80" d="M.008,0S8.646,2.277,5.463,9.65c0,0-5.7-6.572-5.455-9.65" transform="translate(64.981 7.617)" fill="#121032"/>
          <path id="Fill_82" data-name="Fill 82" d="M0,1.389s2.532-3.126,3.963,0S4.293,10.843.44,9.807Z" transform="translate(67.681 24.215)" fill="#5c84cd"/>
          <path id="Fill_84" data-name="Fill 84" d="M26.928,29.245s.014,9.632-9.572,9.61C7.829,38.836,1.337,31.018,1,30.656l-.01-.009-.1-2.024L.343,18.115.053,12.5S-1.164,2.386,8.032.543c6.717-1.348,13.017-.183,16.2,3.48a8.819,8.819,0,0,1,2.1,5.073l.3,10.088.072,2.472Z" transform="translate(44.085 7.321)" fill="#adc3ff"/>
          <path id="Fill_86" data-name="Fill 86" d="M0,0S5.746,2.5,10.178,1.769c0,0-1.2,5.835-6.336,4.323C.442,5.092,0,0,0,0" transform="translate(57.654 30.325)" fill="#fff"/>
          <path id="Fill_88" data-name="Fill 88" d="M.46,13.39A8.424,8.424,0,0,0,1.844,17.4a5.688,5.688,0,0,1,4.471,3.62l2.393.33a25.823,25.823,0,0,0-.5-7.177c-.631-2.382,1.506-3.126,2-5.21a2.763,2.763,0,0,0,0-1.828A8.65,8.65,0,0,1,17.7,5.7c4.08,1.319,7.813,1.774,9.68-.816a2.245,2.245,0,0,0,.42-.862C24.624.361,18.323-.806,11.606.543,2.41,2.387.323,7.048.323,7.048-.386,9.42.266,11.348.46,13.39" transform="translate(40.512 7.32)" fill="#121032"/>
          <path id="Fill_90" data-name="Fill 90" d="M7.3,0A40.878,40.878,0,0,0,0,2.348,7.251,7.251,0,0,0,1.02,4.464,5.691,5.691,0,0,1,5.491,8.085l2.393.329a25.824,25.824,0,0,0-.5-7.177A2.971,2.971,0,0,1,7.3,0" transform="translate(41.336 20.251)" fill="#5c84cd"/>
          <g id="Group_94" data-name="Group 94" transform="translate(39.355 0)">
            <path id="Clip_93-3" data-name="Clip 93" d="M0,0H29.52V14.142H0Z" fill="none"/>
            <g id="Group_94-2" data-name="Group 94" clip-path="url(#clip-path-6)">
              <path id="Fill_92" data-name="Fill 92" d="M.043,14.143S14.974,7.971,25.587,7.6c.277-.009.552-.016.823-.016a18.616,18.616,0,0,1,3.11.215A12.809,12.809,0,0,0,20.236.456a18.044,18.044,0,0,0-2.689-.4,23.079,23.079,0,0,0-4.211.1c-.051,0-.1.009-.152.016q-.6.069-1.169.168a17.933,17.933,0,0,0-3.188.832c-.252.09-.5.187-.734.286a13.751,13.751,0,0,0-4.319,2.84A13.02,13.02,0,0,0,2.762,5.4a12.464,12.464,0,0,0-2.719,8.74" transform="translate(0 0)" fill="#adc3ff"/>
            </g>
          </g>
          <path id="Fill_95" data-name="Fill 95" d="M0,0A14.066,14.066,0,0,1,8.04,7.541q.168.378.32.78l.7-.291c-.065-.17-.132-.341-.2-.5A14.678,14.678,0,0,0,2.689.4,18.044,18.044,0,0,0,0,0" transform="translate(56.902 0.055)" fill="#121032"/>
          <path id="Fill_97" data-name="Fill 97" d="M0,.184c3.7,1.7,5.5,6.152,5.521,6.2l.7-.3A13.911,13.911,0,0,0,1.321,0L1.169.016C.768.062.377.118,0,.184" transform="translate(51.37 0.151)" fill="#121032"/>
          <path id="Fill_99" data-name="Fill 99" d="M0,.286c.262,1.97,1.186,6.041,4.392,8.123l.4-.671C1.782,5.784.955,1.759.734,0,.482.09.238.186,0,.286" transform="translate(47.448 1.168)" fill="#121032"/>
          <path id="Fill_101" data-name="Fill 101" d="M1.078,8.438l.655-.4C.345,5.559.715,2.273,1.248,0A13.053,13.053,0,0,0,.235,1.11a11.368,11.368,0,0,0,.843,7.328" transform="translate(41.882 4.293)" fill="#121032"/>
          <path id="Fill_103" data-name="Fill 103" d="M30.75,5.255a37.5,37.5,0,0,0-29.185,8.3A5.113,5.113,0,0,1,.209,8.408S13.426-4,29.686,1.333A3.947,3.947,0,0,1,30.75,5.255" transform="translate(39.19 5.545)" fill="#121032"/>
          <path id="Fill_105" data-name="Fill 105" d="M6.174,1.27c0,.7-1.383,1.27-3.087,1.27S0,1.971,0,1.27,1.382,0,3.087,0,6.174.569,6.174,1.27" transform="translate(52.04 26.474)" fill="#ec6905"/>
          <path id="Fill_107" data-name="Fill 107" d="M3.829,2.5a7.391,7.391,0,0,1-.743.038C1.383,2.541,0,1.971,0,1.27S1.383,0,3.086,0c.23,0,.455.01.671.031Z" transform="translate(66.96 26.474)" fill="#ec6905"/>
          <path id="Fill_109" data-name="Fill 109" d="M1.867,1.743c0,.963-.418,1.743-.934,1.743S0,2.706,0,1.743.418,0,.933,0s.934.78.934,1.743" transform="translate(56.246 22.141)" fill="#37202b"/>
          <path id="Fill_111" data-name="Fill 111" d="M1.867,1.743c0,.963-.418,1.743-.934,1.743S0,2.706,0,1.743.418,0,.933,0s.934.78.934,1.743" transform="translate(65.363 22.141)" fill="#37202b"/>
          <path id="Fill_113" data-name="Fill 113" d="M.019,3.072C.23,2.055,1.04.145,4.152,0a.821.821,0,0,1,.822.627.853.853,0,0,1-.636,1.065A3.654,3.654,0,0,0,1.631,3.725a.8.8,0,0,1-1.152.321L.385,3.985a.876.876,0,0,1-.366-.913" transform="translate(53.48 16.393)" fill="#37202b"/>
          <path id="Fill_115" data-name="Fill 115" d="M4.984,3.072C4.773,2.055,3.963.145.851,0A.821.821,0,0,0,.029.628.853.853,0,0,0,.665,1.693,3.652,3.652,0,0,1,3.372,3.725a.8.8,0,0,0,1.152.321l.094-.061a.876.876,0,0,0,.366-.913" transform="translate(64.458 16.393)" fill="#37202b"/>
          <path id="Fill_117" data-name="Fill 117" d="M3.114,0c-.043.107-1.257,3.048-3,3.909L.1,3.9,0,1.874A6.523,6.523,0,0,0,3.114,0" transform="translate(44.971 34.068)" fill="#37202b"/>
          <path id="Fill_119" data-name="Fill 119" d="M7,2.666S3.314-2.507.614,1.559C-1.61,4.908,2.6,13.639,7,10.647Z" transform="translate(39.398 24.713)" fill="#adc3ff"/>
          <path id="Fill_121" data-name="Fill 121" d="M0,.887a.869.869,0,0,0,.85.887A.868.868,0,0,0,1.7.887.868.868,0,0,0,.85,0,.869.869,0,0,0,0,.887" transform="translate(42.664 32.829)" fill="#fff"/>
          <path id="Fill_123" data-name="Fill 123" d="M4.3,6.453a.289.289,0,0,0,.042,0,.392.392,0,0,0,.335-.437A7.347,7.347,0,0,0,.52.029.374.374,0,0,0,.027.249.4.4,0,0,0,.238.764,6.557,6.557,0,0,1,3.919,6.1a.387.387,0,0,0,.377.352" transform="translate(41.598 27.348)" fill="#37202b"/>
          <path id="Fill_125" data-name="Fill 125" d="M.38,1.7a.364.364,0,0,0,.238-.088C.948,1.332,1.948.646,2.6.821A.38.38,0,0,0,3.064.535.4.4,0,0,0,2.79.052C1.651-.253.292.868.141,1a.408.408,0,0,0-.056.557.371.371,0,0,0,.3.146" transform="translate(41.976 29.7)" fill="#37202b"/>
          <path id="Fill_127" data-name="Fill 127" d="M.8,9.038a3.231,3.231,0,0,0,3.036-1.71.413.413,0,0,0,0-.341C2.3,3.669.738.26.722.225A.372.372,0,0,0,.216.039.4.4,0,0,0,.037.567C.053.6,1.556,3.884,3.068,7.143A2.572,2.572,0,0,1,.8,8.246a.4.4,0,0,0,0,.792" transform="translate(61.738 19.695)" fill="#37202b"/>
          <path id="Fill_129" data-name="Fill 129" d="M16.376,0s8.443,6.344,10.966,6.316a13.883,13.883,0,0,1-8.465,4.479C12.072,11.494,0,9.4,0,9.4A172.964,172.964,0,0,1,16.376,0" transform="translate(28.607 47.569)" fill="#5c84cd"/>
          <path id="Fill_131" data-name="Fill 131" d="M6.794,0S5.1,5.177,0,6.475a5.473,5.473,0,0,0,6.3,4.1c5.16-.762,9.969-5.491,9.969-5.491S10.867,0,6.794,0" transform="translate(55.949 47.41)" fill="#5c84cd"/>
        </g>
        <g id="Group_133-2" data-name="Group 133" transform="translate(12 446.813)">
          <path id="Fill_1-3" data-name="Fill 1" d="M68.16,43.934c.049,3.05-3.211,7.2-7.836,11.439q-.468.428-.956.86A121.917,121.917,0,0,1,42.106,68.663C36.681,71.9,29.12,75.552,21.968,76.524c-6.758.915-13.156-.568-17.044-7.059A23.266,23.266,0,0,1,3.692,67.11c-6.329-13.864-2.6-37.293-2.6-37.293L17.148,0c11.386,10.7,8.465,38.413,12.628,41.608.071.054.143.106.218.153a3.923,3.923,0,0,0,1.834.579c4.569.391,12.617-4.579,20.709-6.8q.654-.177,1.309-.334c.413-.1.823-.184,1.234-.263,7.22-1.4,12.976,2.473,13.08,9" transform="translate(67.19 60.286)" fill="#fefefe"/>
          <path id="Fill_3-2" data-name="Fill 3" d="M7.819,20.172q-.468.428-.956.86A23.137,23.137,0,0,1,.413,7.588,38.166,38.166,0,0,1,.032.335C.468.216.905.1,1.34,0a36.781,36.781,0,0,0,.345,7.414c.836,5.406,2.891,9.671,6.134,12.757" transform="translate(119.695 95.488)" fill="#abc0fe"/>
          <path id="Fill_5-2" data-name="Fill 5" d="M10.077.579C7.125,2.646,3.08,5.906,1.2,9.352A.634.634,0,0,1,.64,9.69.629.629,0,0,1,.324,9.6a.688.688,0,0,1-.24-.916A25.83,25.83,0,0,1,6.467,1.631,37.553,37.553,0,0,0,1.059,3.224a.623.623,0,0,1-.226.043.645.645,0,0,1-.6-.434.683.683,0,0,1,.377-.864A34.239,34.239,0,0,1,8.243,0a3.927,3.927,0,0,0,1.834.579" transform="translate(88.941 102.046)" fill="#abc0fe"/>
          <path id="Fill_7-2" data-name="Fill 7" d="M18.275,10.1c-6.758.915-13.154-.568-17.044-7.058A23.578,23.578,0,0,1,0,.685c2.336-.823,7.065-1.6,13.033,2.087,3.867,2.389,5.08,5.085,5.242,7.327" transform="translate(70.882 126.71)" fill="#d51247"/>
          <path id="Fill_9-2" data-name="Fill 9" d="M21.212,0S15.411,20.858,4.88,23.382L0,16.973S10.147,1.071,21.212,0" transform="translate(126.709 82.196)" fill="#acc1ff"/>
          <path id="Fill_11-2" data-name="Fill 11" d="M0,36.348l.81.484a1.093,1.093,0,0,0,1.316-.144C5.5,33.535,21.881,18.21,24.673,15.174a1.212,1.212,0,0,0,.288-1.061l-2.547-12.6a1.183,1.183,0,0,0-.483-.742L20.81,0l2.61,13.575Z" transform="translate(126.45 68.007)" fill="#121032"/>
          <path id="Fill_13-2" data-name="Fill 13" d="M2.922,36.2.024,23.743a2.191,2.191,0,0,1,.7-1.765L22.923.365c.5-.487,1-.487,1.111,0l2.9,12.463a2.2,2.2,0,0,1-.7,1.765L4.034,36.206c-.5.487-1,.487-1.112,0" transform="translate(123.457 67.966)" fill="#121032"/>
          <path id="Fill_15-2" data-name="Fill 15" d="M2.131,27.219.023,18.158a2.2,2.2,0,0,1,.7-1.766L17.185.366c.5-.488,1-.488,1.112,0L20.4,9.428a2.2,2.2,0,0,1-.7,1.766L3.242,27.219c-.5.488-1,.488-1.111,0" transform="translate(128.217 71.002)" fill="#2d4a94"/>
          <path id="Fill_17-2" data-name="Fill 17" d="M1.752,3.29c-.772.753-1.541.751-1.716,0A3.39,3.39,0,0,1,1.118.564c.773-.753,1.541-.753,1.716,0A3.4,3.4,0,0,1,1.752,3.29" transform="translate(125.638 93.927)" fill="#2d4a94"/>
          <path id="Fill_19-2" data-name="Fill 19" d="M.664,10.082s-2-4.773.944-7.125S10.653,0,10.653,0C13.025,1.952,9.02,4.2,3.972,6.5Z" transform="translate(127.548 76.294)" fill="#acc1ff"/>
          <path id="Fill_21-2" data-name="Fill 21" d="M0,8.722s3.086,1.459,4.1-.367S3.28,1.927,2.53.359.981,2.775,1.353,4.567a14.09,14.09,0,0,1,.14,2.744Z" transform="translate(138.018 87.109)" fill="#acc1ff"/>
          <path id="Fill_23-2" data-name="Fill 23" d="M0,10.679s3.25,1.4,4.454-.763S3.479,2.286,2.59.423s-1.982,2.907-1.4,5-.1,3.022-.1,3.022Z" transform="translate(142.175 80.633)" fill="#acc1ff"/>
          <path id="Fill_25-2" data-name="Fill 25" d="M0,9.433s2.871,1.24,3.935-.675S3.074,2.02,2.288.374.538,2.94,1.053,4.787A3.216,3.216,0,0,1,.962,7.456Z" transform="translate(144.437 79.64)" fill="#acc1ff"/>
          <path id="Fill_27-2" data-name="Fill 27" d="M0,10.678s3.249,1.4,4.453-.764S3.479,2.286,2.59.423s-1.982,2.906-1.4,5-.1,3.022-.1,3.022Z" transform="translate(139.931 83.952)" fill="#acc1ff"/>
          <path id="Fill_29-2" data-name="Fill 29" d="M43,25.447s6.552-13.916-7.364-21.638C25.9-1.592,7.1-2.581,1.367,9.785c-5.334,11.5,6.664,21.174,6.664,21.174S33.727,36.7,43,25.447" transform="translate(28.607 28.694)" fill="#5c84cd"/>
          <path id="Fill_31-2" data-name="Fill 31" d="M8.623,0S-3.407,1.713.952,8.417C3.26,11.965,16.294,13.9,16.294,13.9S18.848,1.612,8.623,0" transform="translate(40.33 38.033)" fill="#121032"/>
          <path id="Fill_33-2" data-name="Fill 33" d="M77.326,116.393s-44.559,15.64-63.761,7.832c0,0-6.018-1.958-8.434-14.281-.079-.4-.154-.816-.225-1.243-1.018-6.1-1.174-14.532.52-26.17C7.457,68.571,4.647,61.44,3.444,47.539c-.043-.49-.086-.988-.126-1.5-.129-1.5-.248-3.085-.368-4.768C1.657,22.922-3.932,15.077,4.816,9.627A127.581,127.581,0,0,1,25.04,0S34.8,3.238,41.682,0c0,0,10.468,5.361,18.516,8.427s5.4,25.291,7.939,38.052S74.972,69.4,78.854,90.568c3.55,19.363-1.528,25.825-1.528,25.825" transform="translate(22.003 48.414)" fill="#fefefe"/>
          <path id="Fill_35-2" data-name="Fill 35" d="M12.022,53.248a.656.656,0,0,1-.64-.622c-.373-5.34-4.256-18.891-6.578-26.988-.451-1.574-.842-2.934-1.122-3.947C2,15.624.086,1.366.006.762A.665.665,0,0,1,.553.007a.646.646,0,0,1,.724.571C1.3.725,3.255,15.344,4.914,21.317c.279,1.008.669,2.364,1.119,3.936,2.336,8.149,6.246,21.788,6.629,27.276a.661.661,0,0,1-.593.717l-.047,0" transform="translate(88.352 83.842)" fill="#abc0fe"/>
          <g id="Group_39-3" data-name="Group 39" transform="translate(30.816 158.346)">
            <path id="Clip_38-4" data-name="Clip 38" d="M0,0H71.413V19.736H0Z" transform="translate(0 0)" fill="none"/>
            <g id="Group_39-4" data-name="Group 39" transform="translate(0 0)" clip-path="url(#clip-path-3)">
              <path id="Fill_37-2" data-name="Fill 37" d="M70.761,0s1.9,6.093-.785,10.189c0,0-40.03,14.523-66.884,7.746,0,0-2.418-3.045-3.092-9.291,0,0,32.295,8.392,70.761-8.643" fill="#5c84cd"/>
            </g>
          </g>
          <path id="Fill_40-2" data-name="Fill 40" d="M18.882,7.694c7.421,0,9.744-6.95,9.768-7.023a.513.513,0,0,0-.306-.644.481.481,0,0,0-.615.319,9.383,9.383,0,0,1-9.592,6.308C10.552,6.158.807.92.709.868a.475.475,0,0,0-.655.216.521.521,0,0,0,.208.686c.405.219,10.022,5.389,17.814,5.9q.412.027.806.026" transform="translate(41.283 60.287)" fill="#abc0fe"/>
          <path id="Fill_42-2" data-name="Fill 42" d="M41.335.011S46.482,16.477,44.6,25.621c0,0-16.94,10.552-42.19,5.25,0,0-1.413-16.282-2.406-26.748,0,0,25.782-4.369,41.335-4.113" transform="translate(45.514 128.218)" fill="#5c84cd"/>
          <path id="Fill_44-2" data-name="Fill 44" d="M8.312,89.126a.372.372,0,0,0,.363-.364C10.23,53.593.818.839.723.31A.368.368,0,0,0,.3.006.381.381,0,0,0,.006.452C.1.979,9.5,53.647,7.948,88.728a.374.374,0,0,0,.346.4h.018" transform="translate(48.952 51.761)" fill="#fff"/>
          <path id="Fill_46-2" data-name="Fill 46" d="M15.506,86.891h.012a.374.374,0,0,0,.353-.392C14.648,44.026.85.693.71.26A.361.361,0,0,0,.248.02.387.387,0,0,0,.019.5c.138.432,13.9,43.663,15.124,86.018a.372.372,0,0,0,.363.37" transform="translate(64.241 51.627)" fill="#fff"/>
          <path id="Fill_48-2" data-name="Fill 48" d="M43.68,46.687C30.475,70.836.64,78.454.64,78.454A17,17,0,0,1,.722,68.72s27.6-5.364,39.162-29.493C49.288,19.6,44.817,0,44.817,0s4.06,0,6.123,2.153C50.94,2.153,53.562,28.615,43.68,46.687Z" transform="translate(26.788 52.491)" fill="#121032"/>
          <path id="Fill_50-2" data-name="Fill 50" d="M13.794,40.044c.172-.009.344-.022.516-.036a20.158,20.158,0,0,0,2.538-.377c.453-.093.9-.2,1.342-.328q1.006-.277,1.99-.657c.471-.176.937-.374,1.4-.584A28.408,28.408,0,0,0,35.954,22.4c.185-.494.357-.993.509-1.5a24.284,24.284,0,0,0,.678-2.736c.091-.463.164-.927.223-1.4a23.181,23.181,0,0,0,.191-2.513c0-.181.005-.361,0-.54C37.523,5.131,25.685,0,25.685,0L22.513,5.8l-.727,1.328L16.129,17.469,6.764,23.847l-1.211.823L0,28.453S5.59,40.506,13.794,40.044" transform="translate(40.958 80.973)" fill="#121032"/>
          <path id="Fill_52-2" data-name="Fill 52" d="M11.3,15.784c.453-.093.9-.2,1.342-.328C10.367,9,5.15,3.472,1.211,0L0,.823c3.811,3.33,9.034,8.745,11.3,14.961" transform="translate(46.511 104.82)" fill="#2d4a94"/>
          <path id="Fill_54-2" data-name="Fill 54" d="M4.835,6.6c3.613,3.341,7.157,5.274,10.52,5.764q.135-.695.223-1.4C9.528,10.1,3.947,4.151.727,0L0,1.328A46.354,46.354,0,0,0,4.835,6.6" transform="translate(62.744 86.772)" fill="#2d4a94"/>
          <path id="Fill_56-2" data-name="Fill 56" d="M25.738,0S35.2,5.18,29.759,13.811,14.919,33.029,9.151,33.652,0,28.514,0,28.514Z" transform="translate(40.903 80.972)" fill="#2d4a94"/>
          <path id="Fill_58-2" data-name="Fill 58" d="M0,17.742c.472-.176.937-.374,1.4-.584A16.779,16.779,0,0,1,5.232,6.842,15.983,15.983,0,0,1,15.774,1.5c.185-.493.357-.992.509-1.5A17.432,17.432,0,0,0,4.217,5.91,18.271,18.271,0,0,0,0,17.742" transform="translate(61.138 101.877)" fill="#2d4a94"/>
          <g id="Group_62-3" data-name="Group 62" transform="translate(0 59.773)">
            <path id="Clip_61-4" data-name="Clip 61" d="M0,0H47.545V98.679H0Z" transform="translate(0 0)" fill="none"/>
            <g id="Group_62-4" data-name="Group 62" transform="translate(0 0)" clip-path="url(#clip-path-4)">
              <path id="Fill_60-2" data-name="Fill 60" d="M47.545,97.919s-20.458,3.647-34.535-5.041C5.018,87.944-.917,79.035.117,63.225c.016-.239.032-.481.052-.722C3.484,19.823,24.56.513,24.56.513c7.893-2.143,16.67.059,4.5,54.385C25.483,76.939,45.82,78.744,45.82,78.744Z" transform="translate(0 0)" fill="#fefefe"/>
            </g>
          </g>
          <path id="Fill_63-2" data-name="Fill 63" d="M.642,41.974a.593.593,0,0,1-.2-.033A.676.676,0,0,1,.032,41.1c.082-.263,8.2-26.545,8.341-40.432A.642.642,0,1,1,9.656.677C9.514,14.769,1.334,41.244,1.251,41.511a.643.643,0,0,1-.609.463" transform="translate(28 77.734)" fill="#abc0fe"/>
          <path id="Fill_65-2" data-name="Fill 65" d="M.641,7.69a.621.621,0,0,1-.336-.1A.688.688,0,0,1,.1,6.667L3.843.318A.626.626,0,0,1,4.726.1a.69.69,0,0,1,.209.923L1.188,7.371a.635.635,0,0,1-.547.319" transform="translate(35.334 81.756)" fill="#abc0fe"/>
          <path id="Fill_67-2" data-name="Fill 67" d="M2.451,23.773a.643.643,0,0,1-.591-.408C-.491,17.6.045,1.336.069.646A.656.656,0,0,1,.733,0,.66.66,0,0,1,1.35.7C1.345.862.8,17.352,3.041,22.839a.682.682,0,0,1-.339.88.63.63,0,0,1-.251.053" transform="translate(40.757 135.35)" fill="#abc0fe"/>
          <path id="Fill_69-2" data-name="Fill 69" d="M20.824,1.312A36.93,36.93,0,0,1,10.348,2.745,36.107,36.107,0,0,1,.224,1.337Q.105.733,0,.094A.615.615,0,0,1,.5.025a37.654,37.654,0,0,0,19.945,0,.637.637,0,0,1,.8.445.674.674,0,0,1-.424.837" transform="translate(26.909 157.022)" fill="#abc0fe"/>
          <path id="Fill_71-2" data-name="Fill 71" d="M11.093,7.482c-.263,0-.531-.008-.809-.027C7.536,7.271,3.542,6.012.121,1.063A.692.692,0,0,1,.266.127a.624.624,0,0,1,.895.152C7.126,8.91,14.919,5.446,15,5.411a.631.631,0,0,1,.846.343.682.682,0,0,1-.328.883,11.371,11.371,0,0,1-4.422.846" transform="translate(30.667 129.213)" fill="#abc0fe"/>
          <g id="Group_75-3" data-name="Group 75" transform="translate(0 122.998)">
            <path id="Clip_74-4" data-name="Clip 74" d="M0,0H13.238V29.653H0Z" transform="translate(0 0)" fill="none"/>
            <g id="Group_75-4" data-name="Group 75" transform="translate(0 0)" clip-path="url(#clip-path-5)">
              <path id="Fill_73-2" data-name="Fill 73" d="M13.01,29.653C5.018,24.719-.917,15.81.117,0,5.742,6.5,14.791,18.9,13.01,29.653" transform="translate(0)" fill="#5c84cd"/>
            </g>
          </g>
          <path id="Fill_76-2" data-name="Fill 76" d="M17.668,11.495v4.659a13.8,13.8,0,0,1-1.578,1.155C8.35,22.167,0,16.154,0,16.154V0L15.561,10.123Z" transform="translate(45.075 34.755)" fill="#adc3ff"/>
          <path id="Fill_78-2" data-name="Fill 78" d="M12.966,4.006V8.8a13.8,13.8,0,0,1-1.578,1.155C4.8,7.228,0,0,0,0L10.859,2.77Z" transform="translate(49.777 42.11)" fill="#121032"/>
          <path id="Fill_80-2" data-name="Fill 80" d="M.008,0S8.646,2.277,5.463,9.65c0,0-5.7-6.572-5.455-9.65" transform="translate(64.981 7.617)" fill="#121032"/>
          <path id="Fill_82-2" data-name="Fill 82" d="M0,1.389s2.532-3.126,3.963,0S4.293,10.843.44,9.807Z" transform="translate(67.681 24.215)" fill="#5c84cd"/>
          <path id="Fill_84-2" data-name="Fill 84" d="M26.928,29.245s.014,9.632-9.572,9.61C7.829,38.836,1.337,31.018,1,30.656l-.01-.009-.1-2.024L.343,18.115.053,12.5S-1.164,2.386,8.032.543c6.717-1.348,13.017-.183,16.2,3.48a8.819,8.819,0,0,1,2.1,5.073l.3,10.088.072,2.472Z" transform="translate(44.085 7.321)" fill="#adc3ff"/>
          <path id="Fill_86-2" data-name="Fill 86" d="M0,0S5.746,2.5,10.178,1.769c0,0-1.2,5.835-6.336,4.323C.442,5.092,0,0,0,0" transform="translate(57.654 30.325)" fill="#fff"/>
          <path id="Fill_88-2" data-name="Fill 88" d="M.46,13.39A8.424,8.424,0,0,0,1.844,17.4a5.688,5.688,0,0,1,4.471,3.62l2.393.33a25.823,25.823,0,0,0-.5-7.177c-.631-2.382,1.506-3.126,2-5.21a2.763,2.763,0,0,0,0-1.828A8.65,8.65,0,0,1,17.7,5.7c4.08,1.319,7.813,1.774,9.68-.816a2.245,2.245,0,0,0,.42-.862C24.624.361,18.323-.806,11.606.543,2.41,2.387.323,7.048.323,7.048-.386,9.42.266,11.348.46,13.39" transform="translate(40.512 7.32)" fill="#121032"/>
          <path id="Fill_90-2" data-name="Fill 90" d="M7.3,0A40.878,40.878,0,0,0,0,2.348,7.251,7.251,0,0,0,1.02,4.464,5.691,5.691,0,0,1,5.491,8.085l2.393.329a25.824,25.824,0,0,0-.5-7.177A2.971,2.971,0,0,1,7.3,0" transform="translate(41.336 20.251)" fill="#5c84cd"/>
          <g id="Group_94-3" data-name="Group 94" transform="translate(39.355 0)">
            <path id="Clip_93-4" data-name="Clip 93" d="M0,0H29.52V14.142H0Z" fill="none"/>
            <g id="Group_94-4" data-name="Group 94" clip-path="url(#clip-path-6)">
              <path id="Fill_92-2" data-name="Fill 92" d="M.043,14.143S14.974,7.971,25.587,7.6c.277-.009.552-.016.823-.016a18.616,18.616,0,0,1,3.11.215A12.809,12.809,0,0,0,20.236.456a18.044,18.044,0,0,0-2.689-.4,23.079,23.079,0,0,0-4.211.1c-.051,0-.1.009-.152.016q-.6.069-1.169.168a17.933,17.933,0,0,0-3.188.832c-.252.09-.5.187-.734.286a13.751,13.751,0,0,0-4.319,2.84A13.02,13.02,0,0,0,2.762,5.4a12.464,12.464,0,0,0-2.719,8.74" transform="translate(0 0)" fill="#adc3ff"/>
            </g>
          </g>
          <path id="Fill_95-2" data-name="Fill 95" d="M0,0A14.066,14.066,0,0,1,8.04,7.541q.168.378.32.78l.7-.291c-.065-.17-.132-.341-.2-.5A14.678,14.678,0,0,0,2.689.4,18.044,18.044,0,0,0,0,0" transform="translate(56.902 0.055)" fill="#121032"/>
          <path id="Fill_97-2" data-name="Fill 97" d="M0,.184c3.7,1.7,5.5,6.152,5.521,6.2l.7-.3A13.911,13.911,0,0,0,1.321,0L1.169.016C.768.062.377.118,0,.184" transform="translate(51.37 0.151)" fill="#121032"/>
          <path id="Fill_99-2" data-name="Fill 99" d="M0,.286c.262,1.97,1.186,6.041,4.392,8.123l.4-.671C1.782,5.784.955,1.759.734,0,.482.09.238.186,0,.286" transform="translate(47.448 1.168)" fill="#121032"/>
          <path id="Fill_101-2" data-name="Fill 101" d="M1.078,8.438l.655-.4C.345,5.559.715,2.273,1.248,0A13.053,13.053,0,0,0,.235,1.11a11.368,11.368,0,0,0,.843,7.328" transform="translate(41.882 4.293)" fill="#121032"/>
          <path id="Fill_103-2" data-name="Fill 103" d="M30.75,5.255a37.5,37.5,0,0,0-29.185,8.3A5.113,5.113,0,0,1,.209,8.408S13.426-4,29.686,1.333A3.947,3.947,0,0,1,30.75,5.255" transform="translate(39.19 5.545)" fill="#121032"/>
          <path id="Fill_105-2" data-name="Fill 105" d="M6.174,1.27c0,.7-1.383,1.27-3.087,1.27S0,1.971,0,1.27,1.382,0,3.087,0,6.174.569,6.174,1.27" transform="translate(52.04 26.474)" fill="#ec6905"/>
          <path id="Fill_107-2" data-name="Fill 107" d="M3.829,2.5a7.391,7.391,0,0,1-.743.038C1.383,2.541,0,1.971,0,1.27S1.383,0,3.086,0c.23,0,.455.01.671.031Z" transform="translate(66.96 26.474)" fill="#ec6905"/>
          <path id="Fill_109-2" data-name="Fill 109" d="M1.867,1.743c0,.963-.418,1.743-.934,1.743S0,2.706,0,1.743.418,0,.933,0s.934.78.934,1.743" transform="translate(56.246 22.141)" fill="#37202b"/>
          <path id="Fill_111-2" data-name="Fill 111" d="M1.867,1.743c0,.963-.418,1.743-.934,1.743S0,2.706,0,1.743.418,0,.933,0s.934.78.934,1.743" transform="translate(65.363 22.141)" fill="#37202b"/>
          <path id="Fill_113-2" data-name="Fill 113" d="M.019,3.072C.23,2.055,1.04.145,4.152,0a.821.821,0,0,1,.822.627.853.853,0,0,1-.636,1.065A3.654,3.654,0,0,0,1.631,3.725a.8.8,0,0,1-1.152.321L.385,3.985a.876.876,0,0,1-.366-.913" transform="translate(53.48 16.393)" fill="#37202b"/>
          <path id="Fill_115-2" data-name="Fill 115" d="M4.984,3.072C4.773,2.055,3.963.145.851,0A.821.821,0,0,0,.029.628.853.853,0,0,0,.665,1.693,3.652,3.652,0,0,1,3.372,3.725a.8.8,0,0,0,1.152.321l.094-.061a.876.876,0,0,0,.366-.913" transform="translate(64.458 16.393)" fill="#37202b"/>
          <path id="Fill_117-2" data-name="Fill 117" d="M3.114,0c-.043.107-1.257,3.048-3,3.909L.1,3.9,0,1.874A6.523,6.523,0,0,0,3.114,0" transform="translate(44.971 34.068)" fill="#37202b"/>
          <path id="Fill_119-2" data-name="Fill 119" d="M7,2.666S3.314-2.507.614,1.559C-1.61,4.908,2.6,13.639,7,10.647Z" transform="translate(39.398 24.713)" fill="#adc3ff"/>
          <path id="Fill_121-2" data-name="Fill 121" d="M0,.887a.869.869,0,0,0,.85.887A.868.868,0,0,0,1.7.887.868.868,0,0,0,.85,0,.869.869,0,0,0,0,.887" transform="translate(42.664 32.829)" fill="#fff"/>
          <path id="Fill_123-2" data-name="Fill 123" d="M4.3,6.453a.289.289,0,0,0,.042,0,.392.392,0,0,0,.335-.437A7.347,7.347,0,0,0,.52.029.374.374,0,0,0,.027.249.4.4,0,0,0,.238.764,6.557,6.557,0,0,1,3.919,6.1a.387.387,0,0,0,.377.352" transform="translate(41.598 27.348)" fill="#37202b"/>
          <path id="Fill_125-2" data-name="Fill 125" d="M.38,1.7a.364.364,0,0,0,.238-.088C.948,1.332,1.948.646,2.6.821A.38.38,0,0,0,3.064.535.4.4,0,0,0,2.79.052C1.651-.253.292.868.141,1a.408.408,0,0,0-.056.557.371.371,0,0,0,.3.146" transform="translate(41.976 29.7)" fill="#37202b"/>
          <path id="Fill_127-2" data-name="Fill 127" d="M.8,9.038a3.231,3.231,0,0,0,3.036-1.71.413.413,0,0,0,0-.341C2.3,3.669.738.26.722.225A.372.372,0,0,0,.216.039.4.4,0,0,0,.037.567C.053.6,1.556,3.884,3.068,7.143A2.572,2.572,0,0,1,.8,8.246a.4.4,0,0,0,0,.792" transform="translate(61.738 19.695)" fill="#37202b"/>
          <path id="Fill_129-2" data-name="Fill 129" d="M16.376,0s8.443,6.344,10.966,6.316a13.883,13.883,0,0,1-8.465,4.479C12.072,11.494,0,9.4,0,9.4A172.964,172.964,0,0,1,16.376,0" transform="translate(28.607 47.569)" fill="#5c84cd"/>
          <path id="Fill_131-2" data-name="Fill 131" d="M6.794,0S5.1,5.177,0,6.475a5.473,5.473,0,0,0,6.3,4.1c5.16-.762,9.969-5.491,9.969-5.491S10.867,0,6.794,0" transform="translate(55.949 47.41)" fill="#5c84cd"/>
        </g>
      </g>
    </g>
  </g>
</svg>
