<svg height="512" viewBox="0 0 64 64" width="512" xmlns="http://www.w3.org/2000/svg"><g id="Flat"><g id="Color_copy" data-name="Color copy"><path d="m32 3 .1.527a5.888 5.888 0 0 0 10.7 2.129l.3-.448-.109.525a5.888 5.888 0 0 0 9.071 6.067l.444-.3-.3.444a5.888 5.888 0 0 0 6.062 9.073l.525-.109-.448.295a5.888 5.888 0 0 0 2.129 10.7l.526.097-.527.1a5.888 5.888 0 0 0 -2.129 10.7l.448.3-.525-.109a5.888 5.888 0 0 0 -6.062 9.073l.3.444-.444-.3a5.888 5.888 0 0 0 -9.073 6.062l.109.525-.3-.448a5.888 5.888 0 0 0 -10.7 2.129l-.097.524-.1-.527a5.888 5.888 0 0 0 -10.7-2.129l-.295.448.109-.525a5.888 5.888 0 0 0 -9.073-6.062l-.444.3.3-.444a5.888 5.888 0 0 0 -6.062-9.073l-.526.109.449-.3a5.888 5.888 0 0 0 -2.131-10.697l-.527-.1.527-.1a5.888 5.888 0 0 0 2.129-10.7l-.449-.3.526.109a5.888 5.888 0 0 0 6.067-9.071l-.3-.444.444.3a5.888 5.888 0 0 0 9.073-6.062l-.117-.524.295.448a5.888 5.888 0 0 0 10.705-2.129z" fill="#fcea42"/><path d="m32 54.885a9.074 9.074 0 0 0 -8.768-1.737 8.721 8.721 0 0 0 -1.063-1.655 9.071 9.071 0 0 0 -6.352-3.3 8.894 8.894 0 0 0 -1.03-3.579 8.959 8.959 0 0 0 -3.95-3.853 8.939 8.939 0 0 0 -1.746-8.761 8.942 8.942 0 0 0 1.747-8.759 8.962 8.962 0 0 0 3.949-3.853 8.894 8.894 0 0 0 1.03-3.579 9.069 9.069 0 0 0 6.352-3.3 8.775 8.775 0 0 0 1.064-1.655 8.911 8.911 0 0 0 2.847.459 8.907 8.907 0 0 0 5.92-2.198 9.074 9.074 0 0 0 8.768 1.737 8.721 8.721 0 0 0 1.063 1.655 9.071 9.071 0 0 0 6.352 3.3 9.04 9.04 0 0 0 4.98 7.432 8.939 8.939 0 0 0 1.746 8.761 8.942 8.942 0 0 0 -1.747 8.759 9.042 9.042 0 0 0 -4.979 7.432 9.069 9.069 0 0 0 -6.352 3.3 8.775 8.775 0 0 0 -1.064 1.655 9.072 9.072 0 0 0 -8.767 1.739z" fill="#fdc741"/><circle cx="32" cy="32" fill="#e53935" r="19"/><path d="m51 32a18.987 18.987 0 0 1 -32.26 13.59 7.169 7.169 0 0 1 -.16-7.69c.02-.03.03-.06.05-.09a6.948 6.948 0 0 1 2.88-2.65l6.37-3.16a10 10 0 0 0 2.63 9.49l1.49 1.49a7.867 7.867 0 0 0 3.42-7.65l-.06-.41a17.63 17.63 0 0 1 -.19-2.61 18.261 18.261 0 0 1 .95-5.8l.8.81a6.638 6.638 0 0 0 4.69 1.94l-.99 4.94a2.232 2.232 0 0 0 1.46 2.53 2.2 2.2 0 0 0 2.85-1.56 23.33 23.33 0 0 1 2.43-6l2.35-4.05a18.909 18.909 0 0 1 1.29 6.88z" fill="#ef5350"/><path d="m29.26 25.14-3.53 1.76a3.767 3.767 0 0 1 -3.79-.24 3.8 3.8 0 0 0 -4.45.18l-4.41 3.46a19 19 0 0 1 14.39-16.75l.18.54a3.732 3.732 0 0 1 .22 1.27 3.853 3.853 0 0 1 -1.36 2.92 5.679 5.679 0 0 0 2.24 6.52z" fill="#ef5350"/><path d="m41.19 15.38-.01.54a5.7 5.7 0 0 1 -1.24 3.43 5.759 5.759 0 0 1 -3.07 1.99 7.342 7.342 0 0 0 -1.4-1.77 6.583 6.583 0 0 1 -2.24-5.26l.09-1.26a18.635 18.635 0 0 1 7.87 2.33z" fill="#ef5350"/><path d="m49.447 30.566-1.221 2.106a22.3 22.3 0 0 0 -2.326 5.738 3.207 3.207 0 0 1 -6.317-.916 2.958 2.958 0 0 1 .057-.494 4.7 4.7 0 0 0 -2.091-4.916 7.612 7.612 0 0 1 -.928-.683 17.136 17.136 0 0 0 -.451 3.905 16.694 16.694 0 0 0 .18 2.466l.06.415a8.925 8.925 0 0 1 -3.855 8.621l-.682.455-2.073-2.063a11.061 11.061 0 0 1 -3.2-8.449l-4.654 2.31a5.938 5.938 0 0 0 -2.446 2.244l-.061.109a6.276 6.276 0 0 0 -.854 3.906c.055.088.1.183.157.27a18.972 18.972 0 0 0 30.608-5.867 17.611 17.611 0 0 0 .631-3.853 18 18 0 0 0 -.534-5.304z" fill="#ff7373"/><path d="m25.36 22.97-2.08 1.03a2.641 2.641 0 0 1 -1.24.3 2.691 2.691 0 0 1 -1.54-.47 4.749 4.749 0 0 0 -2.66-.8 4.855 4.855 0 0 0 -2.97 1.02l-.2.16a19.082 19.082 0 0 1 9.95-9.72 2.851 2.851 0 0 1 -.76 1.03l-.21.18-.09.26a6.7 6.7 0 0 0 1.8 7.01z" fill="#ff7373"/><path d="m40.07 14.81a4.867 4.867 0 0 1 -.91 1.92 4.692 4.692 0 0 1 -1.87 1.41 7.814 7.814 0 0 0 -1.14-1.3 5.842 5.842 0 0 1 -1.91-3.7 18.227 18.227 0 0 1 5.83 1.67z" fill="#ff7373"/><g fill="#e53935"><path d="m37.209 46.022a1 1 0 1 1 -1.187.769 1 1 0 0 1 1.187-.769z"/><path d="m24.209 40.022a1 1 0 1 1 -1.187.769 1 1 0 0 1 1.187-.769z"/><path d="m26.209 46.022a1 1 0 1 1 -1.187.769 1 1 0 0 1 1.187-.769z"/></g><path d="m22.209 21.022a1 1 0 1 1 -1.187.769 1 1 0 0 1 1.187-.769z" fill="#ef5350"/><path d="m43.209 22.022a1 1 0 1 1 -1.187.769 1 1 0 0 1 1.187-.769z" fill="#c62828"/><path d="m40.209 41.022a1 1 0 1 1 -1.187.769 1 1 0 0 1 1.187-.769z" fill="#e53935"/><path d="m21.209 31.022a1 1 0 1 1 -1.187.769 1 1 0 0 1 1.187-.769z" fill="#c62828"/></g></g></svg>